<?xml version="1.0" encoding="utf-8" standalone="no"?>
<!DOCTYPE svg PUBLIC "-//W3C//DTD SVG 1.1//EN"
  "http://www.w3.org/Graphics/SVG/1.1/DTD/svg11.dtd">
<svg xmlns:xlink="http://www.w3.org/1999/xlink" width="432pt" height="216pt" viewBox="0 0 432 216" xmlns="http://www.w3.org/2000/svg" version="1.1">
 <metadata>
  <rdf:RDF xmlns:dc="http://purl.org/dc/elements/1.1/" xmlns:cc="http://creativecommons.org/ns#" xmlns:rdf="http://www.w3.org/1999/02/22-rdf-syntax-ns#">
   <cc:Work>
    <dc:type rdf:resource="http://purl.org/dc/dcmitype/StillImage"/>
    <dc:date>2023-02-08T16:29:49.079346</dc:date>
    <dc:format>image/svg+xml</dc:format>
    <dc:creator>
     <cc:Agent>
      <dc:title>Matplotlib v3.5.1, https://matplotlib.org/</dc:title>
     </cc:Agent>
    </dc:creator>
   </cc:Work>
  </rdf:RDF>
 </metadata>
 <defs>
  <style type="text/css">*{stroke-linejoin: round; stroke-linecap: butt}</style>
 </defs>
 <g id="figure_1">
  <g id="patch_1">
   <path d="M 0 216 
L 432 216 
L 432 0 
L 0 0 
z
" style="fill: #ffffff"/>
  </g>
  <g id="axes_1">
   <g id="patch_2">
    <path d="M 62.46 163.116 
L 348.444 163.116 
L 348.444 12.96 
L 62.46 12.96 
z
" style="fill: #ffffff"/>
   </g>
   <g id="matplotlib.axis_1">
    <g id="xtick_1">
     <g id="line2d_1">
      <path d="M 62.46 163.116 
L 62.46 12.96 
" clip-path="url(#p33d42a1403)" style="fill: none; stroke: #cccccc; stroke-linecap: round"/>
     </g>
     <g id="text_1">
      <!-- $\mathdefault{10^{1}}$ -->
      <g style="fill: #262626" transform="translate(52.78 180.974281)scale(0.11 -0.11)">
       <defs>
        <path id="DejaVuSans-31" d="M 794 531 
L 1825 531 
L 1825 4091 
L 703 3866 
L 703 4441 
L 1819 4666 
L 2450 4666 
L 2450 531 
L 3481 531 
L 3481 0 
L 794 0 
L 794 531 
z
" transform="scale(0.015625)"/>
        <path id="DejaVuSans-30" d="M 2034 4250 
Q 1547 4250 1301 3770 
Q 1056 3291 1056 2328 
Q 1056 1369 1301 889 
Q 1547 409 2034 409 
Q 2525 409 2770 889 
Q 3016 1369 3016 2328 
Q 3016 3291 2770 3770 
Q 2525 4250 2034 4250 
z
M 2034 4750 
Q 2819 4750 3233 4129 
Q 3647 3509 3647 2328 
Q 3647 1150 3233 529 
Q 2819 -91 2034 -91 
Q 1250 -91 836 529 
Q 422 1150 422 2328 
Q 422 3509 836 4129 
Q 1250 4750 2034 4750 
z
" transform="scale(0.015625)"/>
       </defs>
       <use xlink:href="#DejaVuSans-31" transform="translate(0 0.684375)"/>
       <use xlink:href="#DejaVuSans-30" transform="translate(63.623047 0.684375)"/>
       <use xlink:href="#DejaVuSans-31" transform="translate(128.203125 38.965625)scale(0.7)"/>
      </g>
     </g>
    </g>
    <g id="xtick_2">
     <g id="line2d_2">
      <path d="M 119.6568 163.116 
L 119.6568 12.96 
" clip-path="url(#p33d42a1403)" style="fill: none; stroke: #cccccc; stroke-linecap: round"/>
     </g>
     <g id="text_2">
      <!-- $\mathdefault{10^{3}}$ -->
      <g style="fill: #262626" transform="translate(109.9768 180.974281)scale(0.11 -0.11)">
       <defs>
        <path id="DejaVuSans-33" d="M 2597 2516 
Q 3050 2419 3304 2112 
Q 3559 1806 3559 1356 
Q 3559 666 3084 287 
Q 2609 -91 1734 -91 
Q 1441 -91 1130 -33 
Q 819 25 488 141 
L 488 750 
Q 750 597 1062 519 
Q 1375 441 1716 441 
Q 2309 441 2620 675 
Q 2931 909 2931 1356 
Q 2931 1769 2642 2001 
Q 2353 2234 1838 2234 
L 1294 2234 
L 1294 2753 
L 1863 2753 
Q 2328 2753 2575 2939 
Q 2822 3125 2822 3475 
Q 2822 3834 2567 4026 
Q 2313 4219 1838 4219 
Q 1578 4219 1281 4162 
Q 984 4106 628 3988 
L 628 4550 
Q 988 4650 1302 4700 
Q 1616 4750 1894 4750 
Q 2613 4750 3031 4423 
Q 3450 4097 3450 3541 
Q 3450 3153 3228 2886 
Q 3006 2619 2597 2516 
z
" transform="scale(0.015625)"/>
       </defs>
       <use xlink:href="#DejaVuSans-31" transform="translate(0 0.765625)"/>
       <use xlink:href="#DejaVuSans-30" transform="translate(63.623047 0.765625)"/>
       <use xlink:href="#DejaVuSans-33" transform="translate(128.203125 39.046875)scale(0.7)"/>
      </g>
     </g>
    </g>
    <g id="xtick_3">
     <g id="line2d_3">
      <path d="M 176.8536 163.116 
L 176.8536 12.96 
" clip-path="url(#p33d42a1403)" style="fill: none; stroke: #cccccc; stroke-linecap: round"/>
     </g>
     <g id="text_3">
      <!-- $\mathdefault{10^{5}}$ -->
      <g style="fill: #262626" transform="translate(167.1736 180.974281)scale(0.11 -0.11)">
       <defs>
        <path id="DejaVuSans-35" d="M 691 4666 
L 3169 4666 
L 3169 4134 
L 1269 4134 
L 1269 2991 
Q 1406 3038 1543 3061 
Q 1681 3084 1819 3084 
Q 2600 3084 3056 2656 
Q 3513 2228 3513 1497 
Q 3513 744 3044 326 
Q 2575 -91 1722 -91 
Q 1428 -91 1123 -41 
Q 819 9 494 109 
L 494 744 
Q 775 591 1075 516 
Q 1375 441 1709 441 
Q 2250 441 2565 725 
Q 2881 1009 2881 1497 
Q 2881 1984 2565 2268 
Q 2250 2553 1709 2553 
Q 1456 2553 1204 2497 
Q 953 2441 691 2322 
L 691 4666 
z
" transform="scale(0.015625)"/>
       </defs>
       <use xlink:href="#DejaVuSans-31" transform="translate(0 0.684375)"/>
       <use xlink:href="#DejaVuSans-30" transform="translate(63.623047 0.684375)"/>
       <use xlink:href="#DejaVuSans-35" transform="translate(128.203125 38.965625)scale(0.7)"/>
      </g>
     </g>
    </g>
    <g id="xtick_4">
     <g id="line2d_4">
      <path d="M 234.0504 163.116 
L 234.0504 12.96 
" clip-path="url(#p33d42a1403)" style="fill: none; stroke: #cccccc; stroke-linecap: round"/>
     </g>
     <g id="text_4">
      <!-- $\mathdefault{10^{7}}$ -->
      <g style="fill: #262626" transform="translate(224.3704 180.974281)scale(0.11 -0.11)">
       <defs>
        <path id="DejaVuSans-37" d="M 525 4666 
L 3525 4666 
L 3525 4397 
L 1831 0 
L 1172 0 
L 2766 4134 
L 525 4134 
L 525 4666 
z
" transform="scale(0.015625)"/>
       </defs>
       <use xlink:href="#DejaVuSans-31" transform="translate(0 0.684375)"/>
       <use xlink:href="#DejaVuSans-30" transform="translate(63.623047 0.684375)"/>
       <use xlink:href="#DejaVuSans-37" transform="translate(128.203125 38.965625)scale(0.7)"/>
      </g>
     </g>
    </g>
    <g id="xtick_5">
     <g id="line2d_5">
      <path d="M 291.2472 163.116 
L 291.2472 12.96 
" clip-path="url(#p33d42a1403)" style="fill: none; stroke: #cccccc; stroke-linecap: round"/>
     </g>
     <g id="text_5">
      <!-- $\mathdefault{10^{9}}$ -->
      <g style="fill: #262626" transform="translate(281.5672 180.974281)scale(0.11 -0.11)">
       <defs>
        <path id="DejaVuSans-39" d="M 703 97 
L 703 672 
Q 941 559 1184 500 
Q 1428 441 1663 441 
Q 2288 441 2617 861 
Q 2947 1281 2994 2138 
Q 2813 1869 2534 1725 
Q 2256 1581 1919 1581 
Q 1219 1581 811 2004 
Q 403 2428 403 3163 
Q 403 3881 828 4315 
Q 1253 4750 1959 4750 
Q 2769 4750 3195 4129 
Q 3622 3509 3622 2328 
Q 3622 1225 3098 567 
Q 2575 -91 1691 -91 
Q 1453 -91 1209 -44 
Q 966 3 703 97 
z
M 1959 2075 
Q 2384 2075 2632 2365 
Q 2881 2656 2881 3163 
Q 2881 3666 2632 3958 
Q 2384 4250 1959 4250 
Q 1534 4250 1286 3958 
Q 1038 3666 1038 3163 
Q 1038 2656 1286 2365 
Q 1534 2075 1959 2075 
z
" transform="scale(0.015625)"/>
       </defs>
       <use xlink:href="#DejaVuSans-31" transform="translate(0 0.765625)"/>
       <use xlink:href="#DejaVuSans-30" transform="translate(63.623047 0.765625)"/>
       <use xlink:href="#DejaVuSans-39" transform="translate(128.203125 39.046875)scale(0.7)"/>
      </g>
     </g>
    </g>
    <g id="xtick_6">
     <g id="line2d_6">
      <path d="M 348.444 163.116 
L 348.444 12.96 
" clip-path="url(#p33d42a1403)" style="fill: none; stroke: #cccccc; stroke-linecap: round"/>
     </g>
     <g id="text_6">
      <!-- $\mathdefault{10^{11}}$ -->
      <g style="fill: #262626" transform="translate(336.289 180.974281)scale(0.11 -0.11)">
       <use xlink:href="#DejaVuSans-31" transform="translate(0 0.684375)"/>
       <use xlink:href="#DejaVuSans-30" transform="translate(63.623047 0.684375)"/>
       <use xlink:href="#DejaVuSans-31" transform="translate(128.203125 38.965625)scale(0.7)"/>
       <use xlink:href="#DejaVuSans-31" transform="translate(172.739258 38.965625)scale(0.7)"/>
      </g>
     </g>
    </g>
    <g id="text_7">
     <!-- Frequency [Hz] -->
     <g style="fill: #262626" transform="translate(160.206375 196.380063)scale(0.12 -0.12)">
      <defs>
       <path id="DejaVuSans-46" d="M 628 4666 
L 3309 4666 
L 3309 4134 
L 1259 4134 
L 1259 2759 
L 3109 2759 
L 3109 2228 
L 1259 2228 
L 1259 0 
L 628 0 
L 628 4666 
z
" transform="scale(0.015625)"/>
       <path id="DejaVuSans-72" d="M 2631 2963 
Q 2534 3019 2420 3045 
Q 2306 3072 2169 3072 
Q 1681 3072 1420 2755 
Q 1159 2438 1159 1844 
L 1159 0 
L 581 0 
L 581 3500 
L 1159 3500 
L 1159 2956 
Q 1341 3275 1631 3429 
Q 1922 3584 2338 3584 
Q 2397 3584 2469 3576 
Q 2541 3569 2628 3553 
L 2631 2963 
z
" transform="scale(0.015625)"/>
       <path id="DejaVuSans-65" d="M 3597 1894 
L 3597 1613 
L 953 1613 
Q 991 1019 1311 708 
Q 1631 397 2203 397 
Q 2534 397 2845 478 
Q 3156 559 3463 722 
L 3463 178 
Q 3153 47 2828 -22 
Q 2503 -91 2169 -91 
Q 1331 -91 842 396 
Q 353 884 353 1716 
Q 353 2575 817 3079 
Q 1281 3584 2069 3584 
Q 2775 3584 3186 3129 
Q 3597 2675 3597 1894 
z
M 3022 2063 
Q 3016 2534 2758 2815 
Q 2500 3097 2075 3097 
Q 1594 3097 1305 2825 
Q 1016 2553 972 2059 
L 3022 2063 
z
" transform="scale(0.015625)"/>
       <path id="DejaVuSans-71" d="M 947 1747 
Q 947 1113 1208 752 
Q 1469 391 1925 391 
Q 2381 391 2643 752 
Q 2906 1113 2906 1747 
Q 2906 2381 2643 2742 
Q 2381 3103 1925 3103 
Q 1469 3103 1208 2742 
Q 947 2381 947 1747 
z
M 2906 525 
Q 2725 213 2448 61 
Q 2172 -91 1784 -91 
Q 1150 -91 751 415 
Q 353 922 353 1747 
Q 353 2572 751 3078 
Q 1150 3584 1784 3584 
Q 2172 3584 2448 3432 
Q 2725 3281 2906 2969 
L 2906 3500 
L 3481 3500 
L 3481 -1331 
L 2906 -1331 
L 2906 525 
z
" transform="scale(0.015625)"/>
       <path id="DejaVuSans-75" d="M 544 1381 
L 544 3500 
L 1119 3500 
L 1119 1403 
Q 1119 906 1312 657 
Q 1506 409 1894 409 
Q 2359 409 2629 706 
Q 2900 1003 2900 1516 
L 2900 3500 
L 3475 3500 
L 3475 0 
L 2900 0 
L 2900 538 
Q 2691 219 2414 64 
Q 2138 -91 1772 -91 
Q 1169 -91 856 284 
Q 544 659 544 1381 
z
M 1991 3584 
L 1991 3584 
z
" transform="scale(0.015625)"/>
       <path id="DejaVuSans-6e" d="M 3513 2113 
L 3513 0 
L 2938 0 
L 2938 2094 
Q 2938 2591 2744 2837 
Q 2550 3084 2163 3084 
Q 1697 3084 1428 2787 
Q 1159 2491 1159 1978 
L 1159 0 
L 581 0 
L 581 3500 
L 1159 3500 
L 1159 2956 
Q 1366 3272 1645 3428 
Q 1925 3584 2291 3584 
Q 2894 3584 3203 3211 
Q 3513 2838 3513 2113 
z
" transform="scale(0.015625)"/>
       <path id="DejaVuSans-63" d="M 3122 3366 
L 3122 2828 
Q 2878 2963 2633 3030 
Q 2388 3097 2138 3097 
Q 1578 3097 1268 2742 
Q 959 2388 959 1747 
Q 959 1106 1268 751 
Q 1578 397 2138 397 
Q 2388 397 2633 464 
Q 2878 531 3122 666 
L 3122 134 
Q 2881 22 2623 -34 
Q 2366 -91 2075 -91 
Q 1284 -91 818 406 
Q 353 903 353 1747 
Q 353 2603 823 3093 
Q 1294 3584 2113 3584 
Q 2378 3584 2631 3529 
Q 2884 3475 3122 3366 
z
" transform="scale(0.015625)"/>
       <path id="DejaVuSans-79" d="M 2059 -325 
Q 1816 -950 1584 -1140 
Q 1353 -1331 966 -1331 
L 506 -1331 
L 506 -850 
L 844 -850 
Q 1081 -850 1212 -737 
Q 1344 -625 1503 -206 
L 1606 56 
L 191 3500 
L 800 3500 
L 1894 763 
L 2988 3500 
L 3597 3500 
L 2059 -325 
z
" transform="scale(0.015625)"/>
       <path id="DejaVuSans-20" transform="scale(0.015625)"/>
       <path id="DejaVuSans-5b" d="M 550 4863 
L 1875 4863 
L 1875 4416 
L 1125 4416 
L 1125 -397 
L 1875 -397 
L 1875 -844 
L 550 -844 
L 550 4863 
z
" transform="scale(0.015625)"/>
       <path id="DejaVuSans-48" d="M 628 4666 
L 1259 4666 
L 1259 2753 
L 3553 2753 
L 3553 4666 
L 4184 4666 
L 4184 0 
L 3553 0 
L 3553 2222 
L 1259 2222 
L 1259 0 
L 628 0 
L 628 4666 
z
" transform="scale(0.015625)"/>
       <path id="DejaVuSans-7a" d="M 353 3500 
L 3084 3500 
L 3084 2975 
L 922 459 
L 3084 459 
L 3084 0 
L 275 0 
L 275 525 
L 2438 3041 
L 353 3041 
L 353 3500 
z
" transform="scale(0.015625)"/>
       <path id="DejaVuSans-5d" d="M 1947 4863 
L 1947 -844 
L 622 -844 
L 622 -397 
L 1369 -397 
L 1369 4416 
L 622 4416 
L 622 4863 
L 1947 4863 
z
" transform="scale(0.015625)"/>
      </defs>
      <use xlink:href="#DejaVuSans-46"/>
      <use xlink:href="#DejaVuSans-72" x="50.269531"/>
      <use xlink:href="#DejaVuSans-65" x="89.132812"/>
      <use xlink:href="#DejaVuSans-71" x="150.65625"/>
      <use xlink:href="#DejaVuSans-75" x="214.132812"/>
      <use xlink:href="#DejaVuSans-65" x="277.511719"/>
      <use xlink:href="#DejaVuSans-6e" x="339.035156"/>
      <use xlink:href="#DejaVuSans-63" x="402.414062"/>
      <use xlink:href="#DejaVuSans-79" x="457.394531"/>
      <use xlink:href="#DejaVuSans-20" x="516.574219"/>
      <use xlink:href="#DejaVuSans-5b" x="548.361328"/>
      <use xlink:href="#DejaVuSans-48" x="587.375"/>
      <use xlink:href="#DejaVuSans-7a" x="662.570312"/>
      <use xlink:href="#DejaVuSans-5d" x="715.060547"/>
     </g>
    </g>
   </g>
   <g id="matplotlib.axis_2">
    <g id="ytick_1">
     <g id="line2d_7">
      <path d="M 62.46 161.332367 
L 348.444 161.332367 
" clip-path="url(#p33d42a1403)" style="fill: none; stroke: #cccccc; stroke-linecap: round"/>
     </g>
     <g id="text_8">
      <!-- −40 -->
      <g style="fill: #262626" transform="translate(29.744844 165.511507)scale(0.11 -0.11)">
       <defs>
        <path id="DejaVuSans-2212" d="M 678 2272 
L 4684 2272 
L 4684 1741 
L 678 1741 
L 678 2272 
z
" transform="scale(0.015625)"/>
        <path id="DejaVuSans-34" d="M 2419 4116 
L 825 1625 
L 2419 1625 
L 2419 4116 
z
M 2253 4666 
L 3047 4666 
L 3047 1625 
L 3713 1625 
L 3713 1100 
L 3047 1100 
L 3047 0 
L 2419 0 
L 2419 1100 
L 313 1100 
L 313 1709 
L 2253 4666 
z
" transform="scale(0.015625)"/>
       </defs>
       <use xlink:href="#DejaVuSans-2212"/>
       <use xlink:href="#DejaVuSans-34" x="83.789062"/>
       <use xlink:href="#DejaVuSans-30" x="147.412109"/>
      </g>
     </g>
    </g>
    <g id="ytick_2">
     <g id="line2d_8">
      <path d="M 62.46 129.002967 
L 348.444 129.002967 
" clip-path="url(#p33d42a1403)" style="fill: none; stroke: #cccccc; stroke-linecap: round"/>
     </g>
     <g id="text_9">
      <!-- −20 -->
      <g style="fill: #262626" transform="translate(29.744844 133.182108)scale(0.11 -0.11)">
       <defs>
        <path id="DejaVuSans-32" d="M 1228 531 
L 3431 531 
L 3431 0 
L 469 0 
L 469 531 
Q 828 903 1448 1529 
Q 2069 2156 2228 2338 
Q 2531 2678 2651 2914 
Q 2772 3150 2772 3378 
Q 2772 3750 2511 3984 
Q 2250 4219 1831 4219 
Q 1534 4219 1204 4116 
Q 875 4013 500 3803 
L 500 4441 
Q 881 4594 1212 4672 
Q 1544 4750 1819 4750 
Q 2544 4750 2975 4387 
Q 3406 4025 3406 3419 
Q 3406 3131 3298 2873 
Q 3191 2616 2906 2266 
Q 2828 2175 2409 1742 
Q 1991 1309 1228 531 
z
" transform="scale(0.015625)"/>
       </defs>
       <use xlink:href="#DejaVuSans-2212"/>
       <use xlink:href="#DejaVuSans-32" x="83.789062"/>
       <use xlink:href="#DejaVuSans-30" x="147.412109"/>
      </g>
     </g>
    </g>
    <g id="ytick_3">
     <g id="line2d_9">
      <path d="M 62.46 96.673568 
L 348.444 96.673568 
" clip-path="url(#p33d42a1403)" style="fill: none; stroke: #cccccc; stroke-linecap: round"/>
     </g>
     <g id="text_10">
      <!-- 0 -->
      <g style="fill: #262626" transform="translate(45.96125 100.852709)scale(0.11 -0.11)">
       <use xlink:href="#DejaVuSans-30"/>
      </g>
     </g>
    </g>
    <g id="ytick_4">
     <g id="line2d_10">
      <path d="M 62.46 64.344169 
L 348.444 64.344169 
" clip-path="url(#p33d42a1403)" style="fill: none; stroke: #cccccc; stroke-linecap: round"/>
     </g>
     <g id="text_11">
      <!-- 20 -->
      <g style="fill: #262626" transform="translate(38.9625 68.523309)scale(0.11 -0.11)">
       <use xlink:href="#DejaVuSans-32"/>
       <use xlink:href="#DejaVuSans-30" x="63.623047"/>
      </g>
     </g>
    </g>
    <g id="ytick_5">
     <g id="line2d_11">
      <path d="M 62.46 32.01477 
L 348.444 32.01477 
" clip-path="url(#p33d42a1403)" style="fill: none; stroke: #cccccc; stroke-linecap: round"/>
     </g>
     <g id="text_12">
      <!-- 40 -->
      <g style="fill: #262626" transform="translate(38.9625 36.19391)scale(0.11 -0.11)">
       <use xlink:href="#DejaVuSans-34"/>
       <use xlink:href="#DejaVuSans-30" x="63.623047"/>
      </g>
     </g>
    </g>
    <g id="text_13">
     <!-- Gain [dB] -->
     <g style="fill: #262626" transform="translate(23.249219 116.347687)rotate(-90)scale(0.12 -0.12)">
      <defs>
       <path id="DejaVuSans-47" d="M 3809 666 
L 3809 1919 
L 2778 1919 
L 2778 2438 
L 4434 2438 
L 4434 434 
Q 4069 175 3628 42 
Q 3188 -91 2688 -91 
Q 1594 -91 976 548 
Q 359 1188 359 2328 
Q 359 3472 976 4111 
Q 1594 4750 2688 4750 
Q 3144 4750 3555 4637 
Q 3966 4525 4313 4306 
L 4313 3634 
Q 3963 3931 3569 4081 
Q 3175 4231 2741 4231 
Q 1884 4231 1454 3753 
Q 1025 3275 1025 2328 
Q 1025 1384 1454 906 
Q 1884 428 2741 428 
Q 3075 428 3337 486 
Q 3600 544 3809 666 
z
" transform="scale(0.015625)"/>
       <path id="DejaVuSans-61" d="M 2194 1759 
Q 1497 1759 1228 1600 
Q 959 1441 959 1056 
Q 959 750 1161 570 
Q 1363 391 1709 391 
Q 2188 391 2477 730 
Q 2766 1069 2766 1631 
L 2766 1759 
L 2194 1759 
z
M 3341 1997 
L 3341 0 
L 2766 0 
L 2766 531 
Q 2569 213 2275 61 
Q 1981 -91 1556 -91 
Q 1019 -91 701 211 
Q 384 513 384 1019 
Q 384 1609 779 1909 
Q 1175 2209 1959 2209 
L 2766 2209 
L 2766 2266 
Q 2766 2663 2505 2880 
Q 2244 3097 1772 3097 
Q 1472 3097 1187 3025 
Q 903 2953 641 2809 
L 641 3341 
Q 956 3463 1253 3523 
Q 1550 3584 1831 3584 
Q 2591 3584 2966 3190 
Q 3341 2797 3341 1997 
z
" transform="scale(0.015625)"/>
       <path id="DejaVuSans-69" d="M 603 3500 
L 1178 3500 
L 1178 0 
L 603 0 
L 603 3500 
z
M 603 4863 
L 1178 4863 
L 1178 4134 
L 603 4134 
L 603 4863 
z
" transform="scale(0.015625)"/>
       <path id="DejaVuSans-64" d="M 2906 2969 
L 2906 4863 
L 3481 4863 
L 3481 0 
L 2906 0 
L 2906 525 
Q 2725 213 2448 61 
Q 2172 -91 1784 -91 
Q 1150 -91 751 415 
Q 353 922 353 1747 
Q 353 2572 751 3078 
Q 1150 3584 1784 3584 
Q 2172 3584 2448 3432 
Q 2725 3281 2906 2969 
z
M 947 1747 
Q 947 1113 1208 752 
Q 1469 391 1925 391 
Q 2381 391 2643 752 
Q 2906 1113 2906 1747 
Q 2906 2381 2643 2742 
Q 2381 3103 1925 3103 
Q 1469 3103 1208 2742 
Q 947 2381 947 1747 
z
" transform="scale(0.015625)"/>
       <path id="DejaVuSans-42" d="M 1259 2228 
L 1259 519 
L 2272 519 
Q 2781 519 3026 730 
Q 3272 941 3272 1375 
Q 3272 1813 3026 2020 
Q 2781 2228 2272 2228 
L 1259 2228 
z
M 1259 4147 
L 1259 2741 
L 2194 2741 
Q 2656 2741 2882 2914 
Q 3109 3088 3109 3444 
Q 3109 3797 2882 3972 
Q 2656 4147 2194 4147 
L 1259 4147 
z
M 628 4666 
L 2241 4666 
Q 2963 4666 3353 4366 
Q 3744 4066 3744 3513 
Q 3744 3084 3544 2831 
Q 3344 2578 2956 2516 
Q 3422 2416 3680 2098 
Q 3938 1781 3938 1306 
Q 3938 681 3513 340 
Q 3088 0 2303 0 
L 628 0 
L 628 4666 
z
" transform="scale(0.015625)"/>
      </defs>
      <use xlink:href="#DejaVuSans-47"/>
      <use xlink:href="#DejaVuSans-61" x="77.490234"/>
      <use xlink:href="#DejaVuSans-69" x="138.769531"/>
      <use xlink:href="#DejaVuSans-6e" x="166.552734"/>
      <use xlink:href="#DejaVuSans-20" x="229.931641"/>
      <use xlink:href="#DejaVuSans-5b" x="261.71875"/>
      <use xlink:href="#DejaVuSans-64" x="300.732422"/>
      <use xlink:href="#DejaVuSans-42" x="364.208984"/>
      <use xlink:href="#DejaVuSans-5d" x="432.8125"/>
     </g>
    </g>
   </g>
   <g id="line2d_12">
    <path d="M 62.46 156.290727 
L 68.17968 156.290727 
L 73.89936 156.290727 
L 79.61904 156.290727 
L 85.33872 156.290727 
L 91.0584 156.290727 
L 96.77808 156.290727 
L 102.49776 156.290727 
L 108.21744 156.290727 
L 113.93712 156.290727 
L 119.6568 156.290727 
L 125.37648 156.290726 
L 131.09616 156.290725 
L 136.81584 156.290722 
L 142.53552 156.290714 
L 148.2552 156.290696 
L 153.97488 156.290654 
L 159.69456 156.290569 
L 165.41424 156.290417 
L 171.13392 156.290144 
L 176.8536 156.289568 
L 182.57328 156.288194 
L 188.29296 156.284782 
L 194.01264 156.276234 
L 199.73232 156.254817 
L 205.452 156.201311 
L 211.17168 156.068686 
L 216.89136 155.746232 
L 222.61104 154.996321 
L 228.33072 153.405624 
L 234.0504 150.519961 
L 239.77008 146.228085 
L 245.48976 140.89879 
L 251.20944 135.050452 
L 256.92912 129.116154 
L 262.6488 123.500586 
L 268.36848 118.699338 
L 274.08816 115.209229 
L 279.80784 113.160857 
L 285.52752 112.213626 
L 291.2472 111.943444 
L 296.96688 112.114083 
L 302.68656 112.621231 
L 308.40624 113.396456 
L 314.12592 114.558397 
L 319.8456 116.569974 
L 325.56528 120.036997 
L 331.28496 125.311495 
L 337.00464 132.3536 
L 342.72432 140.806393 
L 348.444 150.174418 
" clip-path="url(#p33d42a1403)" style="fill: none; stroke: #a5cd90; stroke-opacity: 0.8; stroke-width: 2; stroke-linecap: round"/>
   </g>
   <g id="line2d_13">
    <path d="M 62.46 141.899286 
L 68.17968 141.899286 
L 73.89936 141.899286 
L 79.61904 141.899286 
L 85.33872 141.899286 
L 91.0584 141.899286 
L 96.77808 141.899286 
L 102.49776 141.899286 
L 108.21744 141.899286 
L 113.93712 141.899286 
L 119.6568 141.899285 
L 125.37648 141.899285 
L 131.09616 141.899284 
L 136.81584 141.899282 
L 142.53552 141.899275 
L 148.2552 141.899261 
L 153.97488 141.89923 
L 159.69456 141.899173 
L 165.41424 141.899094 
L 171.13392 141.899005 
L 176.8536 141.898896 
L 182.57328 141.898698 
L 188.29296 141.898239 
L 194.01264 141.897104 
L 199.73232 141.894258 
L 205.452 141.887119 
L 211.17168 141.869221 
L 216.89136 141.824469 
L 222.61104 141.713332 
L 228.33072 141.441885 
L 234.0504 140.80415 
L 239.77008 139.42475 
L 245.48976 136.850517 
L 251.20944 132.924798 
L 256.92912 128.047815 
L 262.6488 122.950842 
L 268.36848 118.420541 
L 274.08816 115.098498 
L 279.80784 113.155212 
L 285.52752 112.264303 
L 291.2472 112.021044 
L 296.96688 112.203499 
L 302.68656 112.712885 
L 308.40624 113.482257 
L 314.12592 114.63173 
L 319.8456 116.6248 
L 325.56528 120.070094 
L 331.28496 125.326447 
L 337.00464 132.358957 
L 342.72432 140.811109 
L 348.444 150.18125 
" clip-path="url(#p33d42a1403)" style="fill: none; stroke: #90c391; stroke-opacity: 0.8; stroke-width: 2; stroke-linecap: round"/>
   </g>
   <g id="line2d_14">
    <path d="M 62.46 128.949129 
L 68.17968 128.949129 
L 73.89936 128.949129 
L 79.61904 128.949129 
L 85.33872 128.949129 
L 91.0584 128.949129 
L 96.77808 128.949129 
L 102.49776 128.949129 
L 108.21744 128.949129 
L 113.93712 128.949129 
L 119.6568 128.949128 
L 125.37648 128.949128 
L 131.09616 128.949127 
L 136.81584 128.949124 
L 142.53552 128.949118 
L 148.2552 128.949103 
L 153.97488 128.949071 
L 159.69456 128.949014 
L 165.41424 128.948939 
L 171.13392 128.948871 
L 176.8536 128.94882 
L 182.57328 128.948772 
L 188.29296 128.948691 
L 194.01264 128.948507 
L 199.73232 128.948049 
L 205.452 128.946904 
L 211.17168 128.94403 
L 216.89136 128.936816 
L 222.61104 128.918734 
L 228.33072 128.873557 
L 234.0504 128.761575 
L 239.77008 128.489326 
L 245.48976 127.856661 
L 251.20944 126.521003 
L 256.92912 124.148026 
L 262.6488 120.851239 
L 268.36848 117.399421 
L 274.08816 114.695578 
L 279.80784 113.091003 
L 285.52752 112.363271 
L 291.2472 112.1907 
L 296.96688 112.402593 
L 302.68656 112.918584 
L 308.40624 113.676192 
L 314.12592 114.798934 
L 319.8456 116.75137 
L 325.56528 120.148265 
L 331.28496 125.363932 
L 337.00464 132.374999 
L 342.72432 140.825991 
L 348.444 150.201697 
" clip-path="url(#p33d42a1403)" style="fill: none; stroke: #79b891; stroke-opacity: 0.8; stroke-width: 2; stroke-linecap: round"/>
   </g>
   <g id="line2d_15">
    <path d="M 62.46 116.90581 
L 68.17968 116.90581 
L 73.89936 116.90581 
L 79.61904 116.90581 
L 85.33872 116.90581 
L 91.0584 116.90581 
L 96.77808 116.90581 
L 102.49776 116.90581 
L 108.21744 116.90581 
L 113.93712 116.90581 
L 119.6568 116.90581 
L 125.37648 116.905809 
L 131.09616 116.905808 
L 136.81584 116.905805 
L 142.53552 116.905797 
L 148.2552 116.90578 
L 153.97488 116.905743 
L 159.69456 116.905677 
L 165.41424 116.905594 
L 171.13392 116.905522 
L 176.8536 116.905477 
L 182.57328 116.905452 
L 188.29296 116.905434 
L 194.01264 116.905409 
L 199.73232 116.905354 
L 205.452 116.905219 
L 211.17168 116.904882 
L 216.89136 116.904035 
L 222.61104 116.90191 
L 228.33072 116.896581 
L 234.0504 116.883249 
L 239.77008 116.850095 
L 245.48976 116.768875 
L 251.20944 116.576962 
L 256.92912 116.159563 
L 262.6488 115.394102 
L 268.36848 114.34436 
L 274.08816 113.361256 
L 279.80784 112.734348 
L 285.52752 112.472046 
L 291.2472 112.499275 
L 296.96688 112.791994 
L 302.68656 113.329518 
L 308.40624 114.068627 
L 314.12592 115.141807 
L 319.8456 117.014935 
L 325.56528 120.314311 
L 331.28496 125.446234 
L 337.00464 132.412282 
L 342.72432 140.85982 
L 348.444 150.247514 
" clip-path="url(#p33d42a1403)" style="fill: none; stroke: #65ad90; stroke-opacity: 0.8; stroke-width: 2; stroke-linecap: round"/>
   </g>
   <g id="line2d_16">
    <path d="M 62.46 104.185273 
L 68.17968 104.185273 
L 73.89936 104.185273 
L 79.61904 104.185273 
L 85.33872 104.185273 
L 91.0584 104.185273 
L 96.77808 104.185273 
L 102.49776 104.185273 
L 108.21744 104.185273 
L 113.93712 104.185272 
L 119.6568 104.185272 
L 125.37648 104.185272 
L 131.09616 104.18527 
L 136.81584 104.185266 
L 142.53552 104.185255 
L 148.2552 104.185231 
L 153.97488 104.18518 
L 159.69456 104.185093 
L 165.41424 104.184984 
L 171.13392 104.184894 
L 176.8536 104.184841 
L 182.57328 104.184819 
L 188.29296 104.184818 
L 194.01264 104.184838 
L 199.73232 104.1849 
L 205.452 104.18506 
L 211.17168 104.185463 
L 216.89136 104.186475 
L 222.61104 104.189016 
L 228.33072 104.195393 
L 234.0504 104.211364 
L 239.77008 104.251201 
L 245.48976 104.349521 
L 251.20944 104.586047 
L 256.92912 105.122073 
L 262.6488 106.19204 
L 268.36848 107.890839 
L 274.08816 109.836262 
L 279.80784 111.401018 
L 285.52752 112.374587 
L 291.2472 112.986101 
L 296.96688 113.526978 
L 302.68656 114.144855 
L 308.40624 114.867419 
L 314.12592 115.855874 
L 319.8456 117.5781 
L 325.56528 120.6803 
L 331.28496 125.6352 
L 337.00464 132.501598 
L 342.72432 140.936062 
L 348.444 150.348868 
" clip-path="url(#p33d42a1403)" style="fill: none; stroke: #55a290; stroke-opacity: 0.8; stroke-width: 2; stroke-linecap: round"/>
   </g>
   <g id="line2d_17">
    <path d="M 62.46 85.347692 
L 68.17968 85.347692 
L 73.89936 85.347692 
L 79.61904 85.347692 
L 85.33872 85.347692 
L 91.0584 85.347692 
L 96.77808 85.347692 
L 102.49776 85.347692 
L 108.21744 85.347692 
L 113.93712 85.347691 
L 119.6568 85.347691 
L 125.37648 85.347689 
L 131.09616 85.347685 
L 136.81584 85.347675 
L 142.53552 85.34765 
L 148.2552 85.347594 
L 153.97488 85.347479 
L 159.69456 85.347289 
L 165.41424 85.34707 
L 171.13392 85.346899 
L 176.8536 85.346808 
L 182.57328 85.346784 
L 188.29296 85.34682 
L 194.01264 85.346954 
L 199.73232 85.347308 
L 205.452 85.348204 
L 211.17168 85.350458 
L 216.89136 85.356117 
L 222.61104 85.370311 
L 228.33072 85.405837 
L 234.0504 85.494276 
L 239.77008 85.71154 
L 245.48976 86.228795 
L 251.20944 87.378081 
L 256.92912 89.618724 
L 262.6488 93.217393 
L 268.36848 97.891093 
L 274.08816 102.944224 
L 279.80784 107.598566 
L 285.52752 111.208995 
L 291.2472 113.579363 
L 296.96688 115.044672 
L 302.68656 116.04015 
L 308.40624 116.827661 
L 314.12592 117.683498 
L 319.8456 119.088945 
L 325.56528 121.719503 
L 331.28496 126.204273 
L 337.00464 132.775924 
L 342.72432 141.138066 
L 348.444 150.604239 
" clip-path="url(#p33d42a1403)" style="fill: none; stroke: #47978f; stroke-opacity: 0.8; stroke-width: 2; stroke-linecap: round"/>
   </g>
   <g id="line2d_18">
    <path d="M 62.46 19.792135 
L 68.17968 19.792135 
L 73.89936 19.792135 
L 79.61904 19.792134 
L 85.33872 19.792133 
L 91.0584 19.79213 
L 96.77808 19.792122 
L 102.49776 19.792101 
L 108.21744 19.79205 
L 113.93712 19.791924 
L 119.6568 19.791625 
L 125.37648 19.790963 
L 131.09616 19.78971 
L 136.81584 19.787923 
L 142.53552 19.786223 
L 148.2552 19.785273 
L 153.97488 19.785342 
L 159.69456 19.786842 
L 165.41424 19.79121 
L 171.13392 19.802425 
L 176.8536 19.830619 
L 182.57328 19.900984 
L 188.29296 20.074709 
L 194.01264 20.493064 
L 199.73232 21.445785 
L 205.452 23.389077 
L 211.17168 26.723348 
L 216.89136 31.417113 
L 222.61104 37.047732 
L 228.33072 43.192796 
L 234.0504 49.616828 
L 239.77008 56.223706 
L 245.48976 62.936813 
L 251.20944 69.638682 
L 256.92912 76.250085 
L 262.6488 82.768873 
L 268.36848 89.205718 
L 274.08816 95.52894 
L 279.80784 101.622835 
L 285.52752 107.232164 
L 291.2472 111.950629 
L 296.96688 115.412524 
L 302.68656 117.60462 
L 308.40624 118.880598 
L 314.12592 119.74942 
L 319.8456 120.771093 
L 325.56528 122.621145 
L 331.28496 126.111923 
L 337.00464 131.867618 
L 342.72432 139.839593 
L 348.444 149.277404 
" clip-path="url(#p33d42a1403)" style="fill: none; stroke: #3a8b8e; stroke-opacity: 0.8; stroke-width: 2; stroke-linecap: round"/>
   </g>
   <g id="line2d_19">
    <path d="M 62.46 27.304472 
L 68.17968 27.304472 
L 73.89936 27.304472 
L 79.61904 27.304472 
L 85.33872 27.30447 
L 91.0584 27.304466 
L 96.77808 27.304457 
L 102.49776 27.304434 
L 108.21744 27.304378 
L 113.93712 27.304248 
L 119.6568 27.303977 
L 125.37648 27.30352 
L 131.09616 27.302969 
L 136.81584 27.302528 
L 142.53552 27.302298 
L 148.2552 27.302266 
L 153.97488 27.302453 
L 159.69456 27.303037 
L 165.41424 27.304552 
L 171.13392 27.308377 
L 176.8536 27.317982 
L 182.57328 27.342053 
L 188.29296 27.402158 
L 194.01264 27.550903 
L 199.73232 27.911198 
L 205.452 28.742204 
L 211.17168 30.477505 
L 216.89136 33.554739 
L 222.61104 38.029308 
L 228.33072 43.513774 
L 234.0504 49.549485 
L 239.77008 55.842149 
L 245.48976 62.25185 
L 251.20944 68.728369 
L 256.92912 75.270073 
L 262.6488 81.892434 
L 268.36848 88.565741 
L 274.08816 95.153928 
L 279.80784 101.456361 
L 285.52752 107.225356 
L 291.2472 112.094569 
L 296.96688 115.683709 
L 302.68656 117.914577 
L 308.40624 119.149091 
L 314.12592 119.966861 
L 319.8456 120.949903 
L 325.56528 122.760688 
L 331.28496 126.205325 
L 337.00464 131.92044 
L 342.72432 139.874714 
L 348.444 149.32642 
" clip-path="url(#p33d42a1403)" style="fill: none; stroke: #2d808c; stroke-opacity: 0.8; stroke-width: 2; stroke-linecap: round"/>
   </g>
   <g id="line2d_20">
    <path d="M 62.46 28.688059 
L 68.17968 28.688059 
L 73.89936 28.688059 
L 79.61904 28.688058 
L 85.33872 28.688056 
L 91.0584 28.688051 
L 96.77808 28.68804 
L 102.49776 28.688012 
L 108.21744 28.687945 
L 113.93712 28.687799 
L 119.6568 28.687532 
L 125.37648 28.687166 
L 131.09616 28.686828 
L 136.81584 28.686617 
L 142.53552 28.686536 
L 148.2552 28.686564 
L 153.97488 28.68674 
L 159.69456 28.687226 
L 165.41424 28.688464 
L 171.13392 28.691579 
L 176.8536 28.699401 
L 182.57328 28.719012 
L 188.29296 28.768032 
L 194.01264 28.889676 
L 199.73232 29.186246 
L 205.452 29.880218 
L 211.17168 31.370102 
L 216.89136 34.123861 
L 222.61104 38.308776 
L 228.33072 43.610679 
L 234.0504 49.554699 
L 239.77008 55.804536 
L 245.48976 62.190062 
L 251.20944 68.641951 
L 256.92912 75.143714 
L 262.6488 81.705229 
L 268.36848 88.323384 
L 274.08816 94.90777 
L 279.80784 101.253721 
L 285.52752 107.083247 
L 291.2472 112.027505 
L 296.96688 115.710598 
L 302.68656 118.024587 
L 308.40624 119.285654 
L 314.12592 120.088849 
L 319.8456 121.048989 
L 325.56528 122.829724 
L 331.28496 126.233229 
L 337.00464 131.905758 
L 342.72432 139.830466 
L 348.444 149.271165 
" clip-path="url(#p33d42a1403)" style="fill: none; stroke: #22748b; stroke-opacity: 0.8; stroke-width: 2; stroke-linecap: round"/>
   </g>
   <g id="line2d_21">
    <path d="M 62.46 29.171134 
L 68.17968 29.171134 
L 73.89936 29.171133 
L 79.61904 29.171132 
L 85.33872 29.17113 
L 91.0584 29.171124 
L 96.77808 29.17111 
L 102.49776 29.171076 
L 108.21744 29.170998 
L 113.93712 29.170839 
L 119.6568 29.170585 
L 125.37648 29.170299 
L 131.09616 29.170082 
L 136.81584 29.169969 
L 142.53552 29.16994 
L 148.2552 29.169987 
L 153.97488 29.170159 
L 159.69456 29.17061 
L 165.41424 29.171751 
L 171.13392 29.174621 
L 176.8536 29.181827 
L 182.57328 29.199895 
L 188.29296 29.245076 
L 194.01264 29.3573 
L 199.73232 29.631525 
L 205.452 30.276507 
L 211.17168 31.675323 
L 216.89136 34.302132 
L 222.61104 38.366202 
L 228.33072 43.588259 
L 234.0504 49.49119 
L 239.77008 55.721964 
L 245.48976 62.097553 
L 251.20944 68.540673 
L 256.92912 75.028637 
L 262.6488 81.566585 
L 268.36848 88.156151 
L 274.08816 94.727301 
L 279.80784 101.086647 
L 285.52752 106.94718 
L 291.2472 111.936683 
L 296.96688 115.682618 
L 302.68656 118.068061 
L 308.40624 119.374529 
L 314.12592 120.184085 
L 319.8456 121.133944 
L 325.56528 122.89345 
L 331.28496 126.261934 
L 337.00464 131.895105 
L 342.72432 139.790665 
L 348.444 149.218186 
" clip-path="url(#p33d42a1403)" style="fill: none; stroke: #1c6789; stroke-opacity: 0.8; stroke-width: 2; stroke-linecap: round"/>
   </g>
   <g id="line2d_22">
    <path d="M 62.46 29.363068 
L 68.17968 29.363068 
L 73.89936 29.363068 
L 79.61904 29.363067 
L 85.33872 29.363064 
L 91.0584 29.363057 
L 96.77808 29.36304 
L 102.49776 29.363 
L 108.21744 29.362912 
L 113.93712 29.362747 
L 119.6568 29.362515 
L 125.37648 29.362293 
L 131.09616 29.362148 
L 136.81584 29.362082 
L 142.53552 29.362076 
L 148.2552 29.362131 
L 153.97488 29.362299 
L 159.69456 29.362733 
L 165.41424 29.36383 
L 171.13392 29.366584 
L 176.8536 29.3735 
L 182.57328 29.390841 
L 188.29296 29.434212 
L 194.01264 29.541988 
L 199.73232 29.805629 
L 205.452 30.427229 
L 211.17168 31.781936 
L 216.89136 34.345814 
L 222.61104 38.348371 
L 228.33072 43.528903 
L 234.0504 49.410202 
L 239.77008 55.63092 
L 245.48976 62.001354 
L 251.20944 68.4401 
L 256.92912 74.921238 
L 262.6488 81.447061 
L 268.36848 88.020426 
L 274.08816 94.581944 
L 279.80784 100.947931 
L 285.52752 106.829036 
L 291.2472 111.850864 
L 296.96688 115.642015 
L 302.68656 118.082869 
L 308.40624 119.435538 
L 314.12592 120.262366 
L 319.8456 121.211335 
L 325.56528 122.957786 
L 331.28496 126.297528 
L 337.00464 131.894936 
L 342.72432 139.762597 
L 348.444 149.176479 
" clip-path="url(#p33d42a1403)" style="fill: none; stroke: #1f5b86; stroke-opacity: 0.8; stroke-width: 2; stroke-linecap: round"/>
   </g>
   <g id="line2d_23">
    <path d="M 62.46 29.437426 
L 68.17968 29.437426 
L 73.89936 29.437425 
L 79.61904 29.437424 
L 85.33872 29.437421 
L 91.0584 29.437413 
L 96.77808 29.437393 
L 102.49776 29.437348 
L 108.21744 29.437252 
L 113.93712 29.437087 
L 119.6568 29.43688 
L 125.37648 29.436705 
L 131.09616 29.436603 
L 136.81584 29.436562 
L 142.53552 29.436567 
L 148.2552 29.436625 
L 153.97488 29.436791 
L 159.69456 29.437216 
L 165.41424 29.438287 
L 171.13392 29.440978 
L 176.8536 29.447732 
L 182.57328 29.464668 
L 188.29296 29.507032 
L 194.01264 29.612332 
L 199.73232 29.870067 
L 205.452 30.478575 
L 211.17168 31.808396 
L 216.89136 34.336342 
L 222.61104 38.303285 
L 228.33072 43.459494 
L 234.0504 49.328033 
L 239.77008 55.542804 
L 245.48976 61.9102 
L 251.20944 68.346385 
L 256.92912 74.823518 
L 262.6488 81.342081 
L 268.36848 87.905329 
L 274.08816 94.460395 
L 279.80784 100.831127 
L 285.52752 106.728152 
L 291.2472 111.775777 
L 296.96688 115.60227 
L 302.68656 118.086355 
L 308.40624 119.480315 
L 314.12592 120.329027 
L 319.8456 121.283341 
L 325.56528 123.023575 
L 331.28496 126.34064 
L 337.00464 131.905952 
L 342.72432 139.747171 
L 348.444 149.147433 
" clip-path="url(#p33d42a1403)" style="fill: none; stroke: #244d80; stroke-opacity: 0.8; stroke-width: 2; stroke-linecap: round"/>
   </g>
   <g id="line2d_24">
    <path d="M 62.46 29.46802 
L 68.17968 29.46802 
L 73.89936 29.468019 
L 79.61904 29.468018 
L 85.33872 29.468014 
L 91.0584 29.468005 
L 96.77808 29.467984 
L 102.49776 29.467934 
L 108.21744 29.467834 
L 113.93712 29.467672 
L 119.6568 29.467488 
L 125.37648 29.467348 
L 131.09616 29.467272 
L 136.81584 29.467245 
L 142.53552 29.467255 
L 148.2552 29.467315 
L 153.97488 29.46748 
L 159.69456 29.467898 
L 165.41424 29.468952 
L 171.13392 29.471599 
L 176.8536 29.478245 
L 182.57328 29.49491 
L 188.29296 29.536596 
L 194.01264 29.640229 
L 199.73232 29.893989 
L 205.452 30.493661 
L 211.17168 31.806609 
L 216.89136 34.310017 
L 222.61104 38.252427 
L 228.33072 43.391762 
L 234.0504 49.251414 
L 239.77008 55.462045 
L 245.48976 61.827352 
L 251.20944 68.261828 
L 256.92912 74.736336 
L 262.6488 81.250117 
L 268.36848 87.806592 
L 274.08816 94.357374 
L 279.80784 100.73225 
L 285.52752 106.642705 
L 291.2472 111.71232 
L 296.96688 115.568225 
L 302.68656 118.087123 
L 308.40624 119.516483 
L 314.12592 120.388176 
L 319.8456 121.351635 
L 325.56528 123.090991 
L 331.28496 126.390995 
L 337.00464 131.927863 
L 342.72432 139.744197 
L 348.444 149.13107 
" clip-path="url(#p33d42a1403)" style="fill: none; stroke: #2a3f78; stroke-opacity: 0.8; stroke-width: 2; stroke-linecap: round"/>
   </g>
   <g id="line2d_25">
    <path d="M 62.46 29.506692 
L 68.17968 29.506692 
L 73.89936 29.506691 
L 79.61904 29.50669 
L 85.33872 29.506686 
L 91.0584 29.506676 
L 96.77808 29.506652 
L 102.49776 29.5066 
L 108.21744 29.506497 
L 113.93712 29.506341 
L 119.6568 29.506178 
L 125.37648 29.506063 
L 131.09616 29.506004 
L 136.81584 29.505986 
L 142.53552 29.506 
L 148.2552 29.50606 
L 153.97488 29.506223 
L 159.69456 29.506635 
L 165.41424 29.507672 
L 171.13392 29.510277 
L 176.8536 29.516817 
L 182.57328 29.533218 
L 188.29296 29.574248 
L 194.01264 29.676264 
L 199.73232 29.926161 
L 205.452 30.517234 
L 211.17168 31.813705 
L 216.89136 34.293008 
L 222.61104 38.211155 
L 228.33072 43.33371 
L 234.0504 49.184508 
L 239.77008 55.391051 
L 245.48976 61.754395 
L 251.20944 68.187474 
L 256.92912 74.660063 
L 262.6488 81.170452 
L 268.36848 87.722138 
L 274.08816 94.270072 
L 279.80784 100.648867 
L 285.52752 106.571206 
L 291.2472 111.660298 
L 296.96688 115.541745 
L 302.68656 118.08965 
L 308.40624 119.549076 
L 314.12592 120.443072 
L 319.8456 121.417799 
L 325.56528 123.160244 
L 331.28496 126.448217 
L 337.00464 131.960216 
L 342.72432 139.753272 
L 348.444 149.127107 
" clip-path="url(#p33d42a1403)" style="fill: none; stroke: #2c3172; stroke-opacity: 0.8; stroke-width: 2; stroke-linecap: round"/>
   </g>
   <g id="line2d_26"/>
   <g id="line2d_27"/>
   <g id="line2d_28"/>
   <g id="line2d_29"/>
   <g id="line2d_30"/>
   <g id="line2d_31"/>
   <g id="patch_3">
    <path d="M 62.46 163.116 
L 62.46 12.96 
" style="fill: none; stroke: #cccccc; stroke-width: 1.25; stroke-linejoin: miter; stroke-linecap: square"/>
   </g>
   <g id="patch_4">
    <path d="M 348.444 163.116 
L 348.444 12.96 
" style="fill: none; stroke: #cccccc; stroke-width: 1.25; stroke-linejoin: miter; stroke-linecap: square"/>
   </g>
   <g id="patch_5">
    <path d="M 62.46 163.116 
L 348.444 163.116 
" style="fill: none; stroke: #cccccc; stroke-width: 1.25; stroke-linejoin: miter; stroke-linecap: square"/>
   </g>
   <g id="patch_6">
    <path d="M 62.46 12.96 
L 348.444 12.96 
" style="fill: none; stroke: #cccccc; stroke-width: 1.25; stroke-linejoin: miter; stroke-linecap: square"/>
   </g>
   <g id="legend_1">
    <g id="patch_7">
     <path d="M 356.36368 130.249375 
L 416.055867 130.249375 
Q 418.255867 130.249375 418.255867 128.049375 
L 418.255867 15.16 
Q 418.255867 12.96 416.055867 12.96 
L 356.36368 12.96 
Q 354.16368 12.96 354.16368 15.16 
L 354.16368 128.049375 
Q 354.16368 130.249375 356.36368 130.249375 
z
" style="fill: #ffffff; opacity: 0.8; stroke: #cccccc; stroke-linejoin: miter"/>
    </g>
    <g id="text_14">
     <!-- Vdd [V] -->
     <g style="fill: #262626" transform="translate(363.794149 26.478125)scale(0.12 -0.12)">
      <defs>
       <path id="DejaVuSans-56" d="M 1831 0 
L 50 4666 
L 709 4666 
L 2188 738 
L 3669 4666 
L 4325 4666 
L 2547 0 
L 1831 0 
z
" transform="scale(0.015625)"/>
      </defs>
      <use xlink:href="#DejaVuSans-56"/>
      <use xlink:href="#DejaVuSans-64" x="68.408203"/>
      <use xlink:href="#DejaVuSans-64" x="131.884766"/>
      <use xlink:href="#DejaVuSans-20" x="195.361328"/>
      <use xlink:href="#DejaVuSans-5b" x="227.148438"/>
      <use xlink:href="#DejaVuSans-56" x="266.162109"/>
      <use xlink:href="#DejaVuSans-5d" x="334.570312"/>
     </g>
    </g>
    <g id="line2d_32">
     <path d="M 358.56368 38.982031 
L 369.56368 38.982031 
L 380.56368 38.982031 
" style="fill: none; stroke: #9bc891; stroke-width: 1.5; stroke-linecap: round"/>
    </g>
    <g id="text_15">
     <!-- 1.25 -->
     <g style="fill: #262626" transform="translate(389.36368 42.832031)scale(0.11 -0.11)">
      <defs>
       <path id="DejaVuSans-2e" d="M 684 794 
L 1344 794 
L 1344 0 
L 684 0 
L 684 794 
z
" transform="scale(0.015625)"/>
      </defs>
      <use xlink:href="#DejaVuSans-31"/>
      <use xlink:href="#DejaVuSans-2e" x="63.623047"/>
      <use xlink:href="#DejaVuSans-32" x="95.410156"/>
      <use xlink:href="#DejaVuSans-35" x="159.033203"/>
     </g>
    </g>
    <g id="line2d_33">
     <path d="M 358.56368 55.127969 
L 369.56368 55.127969 
L 380.56368 55.127969 
" style="fill: none; stroke: #65ad90; stroke-width: 1.5; stroke-linecap: round"/>
    </g>
    <g id="text_16">
     <!-- 1.50 -->
     <g style="fill: #262626" transform="translate(389.36368 58.977969)scale(0.11 -0.11)">
      <use xlink:href="#DejaVuSans-31"/>
      <use xlink:href="#DejaVuSans-2e" x="63.623047"/>
      <use xlink:href="#DejaVuSans-35" x="95.410156"/>
      <use xlink:href="#DejaVuSans-30" x="159.033203"/>
     </g>
    </g>
    <g id="line2d_34">
     <path d="M 358.56368 71.273906 
L 369.56368 71.273906 
L 380.56368 71.273906 
" style="fill: none; stroke: #40918f; stroke-width: 1.5; stroke-linecap: round"/>
    </g>
    <g id="text_17">
     <!-- 1.75 -->
     <g style="fill: #262626" transform="translate(389.36368 75.123906)scale(0.11 -0.11)">
      <use xlink:href="#DejaVuSans-31"/>
      <use xlink:href="#DejaVuSans-2e" x="63.623047"/>
      <use xlink:href="#DejaVuSans-37" x="95.410156"/>
      <use xlink:href="#DejaVuSans-35" x="159.033203"/>
     </g>
    </g>
    <g id="line2d_35">
     <path d="M 358.56368 87.419844 
L 369.56368 87.419844 
L 380.56368 87.419844 
" style="fill: none; stroke: #22748b; stroke-width: 1.5; stroke-linecap: round"/>
    </g>
    <g id="text_18">
     <!-- 2.00 -->
     <g style="fill: #262626" transform="translate(389.36368 91.269844)scale(0.11 -0.11)">
      <use xlink:href="#DejaVuSans-32"/>
      <use xlink:href="#DejaVuSans-2e" x="63.623047"/>
      <use xlink:href="#DejaVuSans-30" x="95.410156"/>
      <use xlink:href="#DejaVuSans-30" x="159.033203"/>
     </g>
    </g>
    <g id="line2d_36">
     <path d="M 358.56368 103.565781 
L 369.56368 103.565781 
L 380.56368 103.565781 
" style="fill: none; stroke: #215483; stroke-width: 1.5; stroke-linecap: round"/>
    </g>
    <g id="text_19">
     <!-- 2.25 -->
     <g style="fill: #262626" transform="translate(389.36368 107.415781)scale(0.11 -0.11)">
      <use xlink:href="#DejaVuSans-32"/>
      <use xlink:href="#DejaVuSans-2e" x="63.623047"/>
      <use xlink:href="#DejaVuSans-32" x="95.410156"/>
      <use xlink:href="#DejaVuSans-35" x="159.033203"/>
     </g>
    </g>
    <g id="line2d_37">
     <path d="M 358.56368 119.711719 
L 369.56368 119.711719 
L 380.56368 119.711719 
" style="fill: none; stroke: #2c3172; stroke-width: 1.5; stroke-linecap: round"/>
    </g>
    <g id="text_20">
     <!-- 2.50 -->
     <g style="fill: #262626" transform="translate(389.36368 123.561719)scale(0.11 -0.11)">
      <use xlink:href="#DejaVuSans-32"/>
      <use xlink:href="#DejaVuSans-2e" x="63.623047"/>
      <use xlink:href="#DejaVuSans-35" x="95.410156"/>
      <use xlink:href="#DejaVuSans-30" x="159.033203"/>
     </g>
    </g>
   </g>
  </g>
 </g>
 <defs>
  <clipPath id="p33d42a1403">
   <rect x="62.46" y="12.96" width="285.984" height="150.156"/>
  </clipPath>
 </defs>
</svg>
