<?xml version="1.0" encoding="utf-8" standalone="no"?>
<!DOCTYPE svg PUBLIC "-//W3C//DTD SVG 1.1//EN"
  "http://www.w3.org/Graphics/SVG/1.1/DTD/svg11.dtd">
<svg xmlns:xlink="http://www.w3.org/1999/xlink" width="432pt" height="216pt" viewBox="0 0 432 216" xmlns="http://www.w3.org/2000/svg" version="1.1">
 <metadata>
  <rdf:RDF xmlns:dc="http://purl.org/dc/elements/1.1/" xmlns:cc="http://creativecommons.org/ns#" xmlns:rdf="http://www.w3.org/1999/02/22-rdf-syntax-ns#">
   <cc:Work>
    <dc:type rdf:resource="http://purl.org/dc/dcmitype/StillImage"/>
    <dc:date>2022-04-22T12:17:37.507699</dc:date>
    <dc:format>image/svg+xml</dc:format>
    <dc:creator>
     <cc:Agent>
      <dc:title>Matplotlib v3.5.1, https://matplotlib.org/</dc:title>
     </cc:Agent>
    </dc:creator>
   </cc:Work>
  </rdf:RDF>
 </metadata>
 <defs>
  <style type="text/css">*{stroke-linejoin: round; stroke-linecap: butt}</style>
 </defs>
 <g id="figure_1">
  <g id="patch_1">
   <path d="M 0 216 
L 432 216 
L 432 0 
L 0 0 
z
" style="fill: #ffffff"/>
  </g>
  <g id="axes_1">
   <g id="patch_2">
    <path d="M 60.39 165.78 
L 334.604 165.78 
L 334.604 12.96 
L 60.39 12.96 
z
" style="fill: #ffffff"/>
   </g>
   <g id="matplotlib.axis_1">
    <g id="xtick_1">
     <g id="line2d_1">
      <path d="M 79.63755 165.78 
L 79.63755 12.96 
" clip-path="url(#pe86e7a7418)" style="fill: none; stroke: #cccccc; stroke-linecap: round"/>
     </g>
     <g id="text_1">
      <!-- 250 -->
      <g style="fill: #262626" transform="translate(69.139425 183.638281)scale(0.11 -0.11)">
       <defs>
        <path id="DejaVuSans-32" d="M 1228 531 
L 3431 531 
L 3431 0 
L 469 0 
L 469 531 
Q 828 903 1448 1529 
Q 2069 2156 2228 2338 
Q 2531 2678 2651 2914 
Q 2772 3150 2772 3378 
Q 2772 3750 2511 3984 
Q 2250 4219 1831 4219 
Q 1534 4219 1204 4116 
Q 875 4013 500 3803 
L 500 4441 
Q 881 4594 1212 4672 
Q 1544 4750 1819 4750 
Q 2544 4750 2975 4387 
Q 3406 4025 3406 3419 
Q 3406 3131 3298 2873 
Q 3191 2616 2906 2266 
Q 2828 2175 2409 1742 
Q 1991 1309 1228 531 
z
" transform="scale(0.015625)"/>
        <path id="DejaVuSans-35" d="M 691 4666 
L 3169 4666 
L 3169 4134 
L 1269 4134 
L 1269 2991 
Q 1406 3038 1543 3061 
Q 1681 3084 1819 3084 
Q 2600 3084 3056 2656 
Q 3513 2228 3513 1497 
Q 3513 744 3044 326 
Q 2575 -91 1722 -91 
Q 1428 -91 1123 -41 
Q 819 9 494 109 
L 494 744 
Q 775 591 1075 516 
Q 1375 441 1709 441 
Q 2250 441 2565 725 
Q 2881 1009 2881 1497 
Q 2881 1984 2565 2268 
Q 2250 2553 1709 2553 
Q 1456 2553 1204 2497 
Q 953 2441 691 2322 
L 691 4666 
z
" transform="scale(0.015625)"/>
        <path id="DejaVuSans-30" d="M 2034 4250 
Q 1547 4250 1301 3770 
Q 1056 3291 1056 2328 
Q 1056 1369 1301 889 
Q 1547 409 2034 409 
Q 2525 409 2770 889 
Q 3016 1369 3016 2328 
Q 3016 3291 2770 3770 
Q 2525 4250 2034 4250 
z
M 2034 4750 
Q 2819 4750 3233 4129 
Q 3647 3509 3647 2328 
Q 3647 1150 3233 529 
Q 2819 -91 2034 -91 
Q 1250 -91 836 529 
Q 422 1150 422 2328 
Q 422 3509 836 4129 
Q 1250 4750 2034 4750 
z
" transform="scale(0.015625)"/>
       </defs>
       <use xlink:href="#DejaVuSans-32"/>
       <use xlink:href="#DejaVuSans-35" x="63.623047"/>
       <use xlink:href="#DejaVuSans-30" x="127.246094"/>
      </g>
     </g>
    </g>
    <g id="xtick_2">
     <g id="line2d_2">
      <path d="M 122.033036 165.78 
L 122.033036 12.96 
" clip-path="url(#pe86e7a7418)" style="fill: none; stroke: #cccccc; stroke-linecap: round"/>
     </g>
     <g id="text_2">
      <!-- 500 -->
      <g style="fill: #262626" transform="translate(111.534911 183.638281)scale(0.11 -0.11)">
       <use xlink:href="#DejaVuSans-35"/>
       <use xlink:href="#DejaVuSans-30" x="63.623047"/>
       <use xlink:href="#DejaVuSans-30" x="127.246094"/>
      </g>
     </g>
    </g>
    <g id="xtick_3">
     <g id="line2d_3">
      <path d="M 164.428521 165.78 
L 164.428521 12.96 
" clip-path="url(#pe86e7a7418)" style="fill: none; stroke: #cccccc; stroke-linecap: round"/>
     </g>
     <g id="text_3">
      <!-- 750 -->
      <g style="fill: #262626" transform="translate(153.930396 183.638281)scale(0.11 -0.11)">
       <defs>
        <path id="DejaVuSans-37" d="M 525 4666 
L 3525 4666 
L 3525 4397 
L 1831 0 
L 1172 0 
L 2766 4134 
L 525 4134 
L 525 4666 
z
" transform="scale(0.015625)"/>
       </defs>
       <use xlink:href="#DejaVuSans-37"/>
       <use xlink:href="#DejaVuSans-35" x="63.623047"/>
       <use xlink:href="#DejaVuSans-30" x="127.246094"/>
      </g>
     </g>
    </g>
    <g id="xtick_4">
     <g id="line2d_4">
      <path d="M 206.824007 165.78 
L 206.824007 12.96 
" clip-path="url(#pe86e7a7418)" style="fill: none; stroke: #cccccc; stroke-linecap: round"/>
     </g>
     <g id="text_4">
      <!-- 1000 -->
      <g style="fill: #262626" transform="translate(192.826507 183.638281)scale(0.11 -0.11)">
       <defs>
        <path id="DejaVuSans-31" d="M 794 531 
L 1825 531 
L 1825 4091 
L 703 3866 
L 703 4441 
L 1819 4666 
L 2450 4666 
L 2450 531 
L 3481 531 
L 3481 0 
L 794 0 
L 794 531 
z
" transform="scale(0.015625)"/>
       </defs>
       <use xlink:href="#DejaVuSans-31"/>
       <use xlink:href="#DejaVuSans-30" x="63.623047"/>
       <use xlink:href="#DejaVuSans-30" x="127.246094"/>
       <use xlink:href="#DejaVuSans-30" x="190.869141"/>
      </g>
     </g>
    </g>
    <g id="xtick_5">
     <g id="line2d_5">
      <path d="M 249.219492 165.78 
L 249.219492 12.96 
" clip-path="url(#pe86e7a7418)" style="fill: none; stroke: #cccccc; stroke-linecap: round"/>
     </g>
     <g id="text_5">
      <!-- 1250 -->
      <g style="fill: #262626" transform="translate(235.221992 183.638281)scale(0.11 -0.11)">
       <use xlink:href="#DejaVuSans-31"/>
       <use xlink:href="#DejaVuSans-32" x="63.623047"/>
       <use xlink:href="#DejaVuSans-35" x="127.246094"/>
       <use xlink:href="#DejaVuSans-30" x="190.869141"/>
      </g>
     </g>
    </g>
    <g id="xtick_6">
     <g id="line2d_6">
      <path d="M 291.614978 165.78 
L 291.614978 12.96 
" clip-path="url(#pe86e7a7418)" style="fill: none; stroke: #cccccc; stroke-linecap: round"/>
     </g>
     <g id="text_6">
      <!-- 1500 -->
      <g style="fill: #262626" transform="translate(277.617478 183.638281)scale(0.11 -0.11)">
       <use xlink:href="#DejaVuSans-31"/>
       <use xlink:href="#DejaVuSans-35" x="63.623047"/>
       <use xlink:href="#DejaVuSans-30" x="127.246094"/>
       <use xlink:href="#DejaVuSans-30" x="190.869141"/>
      </g>
     </g>
    </g>
    <g id="xtick_7">
     <g id="line2d_7">
      <path d="M 334.010463 165.78 
L 334.010463 12.96 
" clip-path="url(#pe86e7a7418)" style="fill: none; stroke: #cccccc; stroke-linecap: round"/>
     </g>
     <g id="text_7">
      <!-- 1750 -->
      <g style="fill: #262626" transform="translate(320.012963 183.638281)scale(0.11 -0.11)">
       <use xlink:href="#DejaVuSans-31"/>
       <use xlink:href="#DejaVuSans-37" x="63.623047"/>
       <use xlink:href="#DejaVuSans-35" x="127.246094"/>
       <use xlink:href="#DejaVuSans-30" x="190.869141"/>
      </g>
     </g>
    </g>
    <g id="text_8">
     <!-- PMOS Width [nm] -->
     <g style="fill: #262626" transform="translate(144.5995 199.044062)scale(0.12 -0.12)">
      <defs>
       <path id="DejaVuSans-50" d="M 1259 4147 
L 1259 2394 
L 2053 2394 
Q 2494 2394 2734 2622 
Q 2975 2850 2975 3272 
Q 2975 3691 2734 3919 
Q 2494 4147 2053 4147 
L 1259 4147 
z
M 628 4666 
L 2053 4666 
Q 2838 4666 3239 4311 
Q 3641 3956 3641 3272 
Q 3641 2581 3239 2228 
Q 2838 1875 2053 1875 
L 1259 1875 
L 1259 0 
L 628 0 
L 628 4666 
z
" transform="scale(0.015625)"/>
       <path id="DejaVuSans-4d" d="M 628 4666 
L 1569 4666 
L 2759 1491 
L 3956 4666 
L 4897 4666 
L 4897 0 
L 4281 0 
L 4281 4097 
L 3078 897 
L 2444 897 
L 1241 4097 
L 1241 0 
L 628 0 
L 628 4666 
z
" transform="scale(0.015625)"/>
       <path id="DejaVuSans-4f" d="M 2522 4238 
Q 1834 4238 1429 3725 
Q 1025 3213 1025 2328 
Q 1025 1447 1429 934 
Q 1834 422 2522 422 
Q 3209 422 3611 934 
Q 4013 1447 4013 2328 
Q 4013 3213 3611 3725 
Q 3209 4238 2522 4238 
z
M 2522 4750 
Q 3503 4750 4090 4092 
Q 4678 3434 4678 2328 
Q 4678 1225 4090 567 
Q 3503 -91 2522 -91 
Q 1538 -91 948 565 
Q 359 1222 359 2328 
Q 359 3434 948 4092 
Q 1538 4750 2522 4750 
z
" transform="scale(0.015625)"/>
       <path id="DejaVuSans-53" d="M 3425 4513 
L 3425 3897 
Q 3066 4069 2747 4153 
Q 2428 4238 2131 4238 
Q 1616 4238 1336 4038 
Q 1056 3838 1056 3469 
Q 1056 3159 1242 3001 
Q 1428 2844 1947 2747 
L 2328 2669 
Q 3034 2534 3370 2195 
Q 3706 1856 3706 1288 
Q 3706 609 3251 259 
Q 2797 -91 1919 -91 
Q 1588 -91 1214 -16 
Q 841 59 441 206 
L 441 856 
Q 825 641 1194 531 
Q 1563 422 1919 422 
Q 2459 422 2753 634 
Q 3047 847 3047 1241 
Q 3047 1584 2836 1778 
Q 2625 1972 2144 2069 
L 1759 2144 
Q 1053 2284 737 2584 
Q 422 2884 422 3419 
Q 422 4038 858 4394 
Q 1294 4750 2059 4750 
Q 2388 4750 2728 4690 
Q 3069 4631 3425 4513 
z
" transform="scale(0.015625)"/>
       <path id="DejaVuSans-20" transform="scale(0.015625)"/>
       <path id="DejaVuSans-57" d="M 213 4666 
L 850 4666 
L 1831 722 
L 2809 4666 
L 3519 4666 
L 4500 722 
L 5478 4666 
L 6119 4666 
L 4947 0 
L 4153 0 
L 3169 4050 
L 2175 0 
L 1381 0 
L 213 4666 
z
" transform="scale(0.015625)"/>
       <path id="DejaVuSans-69" d="M 603 3500 
L 1178 3500 
L 1178 0 
L 603 0 
L 603 3500 
z
M 603 4863 
L 1178 4863 
L 1178 4134 
L 603 4134 
L 603 4863 
z
" transform="scale(0.015625)"/>
       <path id="DejaVuSans-64" d="M 2906 2969 
L 2906 4863 
L 3481 4863 
L 3481 0 
L 2906 0 
L 2906 525 
Q 2725 213 2448 61 
Q 2172 -91 1784 -91 
Q 1150 -91 751 415 
Q 353 922 353 1747 
Q 353 2572 751 3078 
Q 1150 3584 1784 3584 
Q 2172 3584 2448 3432 
Q 2725 3281 2906 2969 
z
M 947 1747 
Q 947 1113 1208 752 
Q 1469 391 1925 391 
Q 2381 391 2643 752 
Q 2906 1113 2906 1747 
Q 2906 2381 2643 2742 
Q 2381 3103 1925 3103 
Q 1469 3103 1208 2742 
Q 947 2381 947 1747 
z
" transform="scale(0.015625)"/>
       <path id="DejaVuSans-74" d="M 1172 4494 
L 1172 3500 
L 2356 3500 
L 2356 3053 
L 1172 3053 
L 1172 1153 
Q 1172 725 1289 603 
Q 1406 481 1766 481 
L 2356 481 
L 2356 0 
L 1766 0 
Q 1100 0 847 248 
Q 594 497 594 1153 
L 594 3053 
L 172 3053 
L 172 3500 
L 594 3500 
L 594 4494 
L 1172 4494 
z
" transform="scale(0.015625)"/>
       <path id="DejaVuSans-68" d="M 3513 2113 
L 3513 0 
L 2938 0 
L 2938 2094 
Q 2938 2591 2744 2837 
Q 2550 3084 2163 3084 
Q 1697 3084 1428 2787 
Q 1159 2491 1159 1978 
L 1159 0 
L 581 0 
L 581 4863 
L 1159 4863 
L 1159 2956 
Q 1366 3272 1645 3428 
Q 1925 3584 2291 3584 
Q 2894 3584 3203 3211 
Q 3513 2838 3513 2113 
z
" transform="scale(0.015625)"/>
       <path id="DejaVuSans-5b" d="M 550 4863 
L 1875 4863 
L 1875 4416 
L 1125 4416 
L 1125 -397 
L 1875 -397 
L 1875 -844 
L 550 -844 
L 550 4863 
z
" transform="scale(0.015625)"/>
       <path id="DejaVuSans-6e" d="M 3513 2113 
L 3513 0 
L 2938 0 
L 2938 2094 
Q 2938 2591 2744 2837 
Q 2550 3084 2163 3084 
Q 1697 3084 1428 2787 
Q 1159 2491 1159 1978 
L 1159 0 
L 581 0 
L 581 3500 
L 1159 3500 
L 1159 2956 
Q 1366 3272 1645 3428 
Q 1925 3584 2291 3584 
Q 2894 3584 3203 3211 
Q 3513 2838 3513 2113 
z
" transform="scale(0.015625)"/>
       <path id="DejaVuSans-6d" d="M 3328 2828 
Q 3544 3216 3844 3400 
Q 4144 3584 4550 3584 
Q 5097 3584 5394 3201 
Q 5691 2819 5691 2113 
L 5691 0 
L 5113 0 
L 5113 2094 
Q 5113 2597 4934 2840 
Q 4756 3084 4391 3084 
Q 3944 3084 3684 2787 
Q 3425 2491 3425 1978 
L 3425 0 
L 2847 0 
L 2847 2094 
Q 2847 2600 2669 2842 
Q 2491 3084 2119 3084 
Q 1678 3084 1418 2786 
Q 1159 2488 1159 1978 
L 1159 0 
L 581 0 
L 581 3500 
L 1159 3500 
L 1159 2956 
Q 1356 3278 1631 3431 
Q 1906 3584 2284 3584 
Q 2666 3584 2933 3390 
Q 3200 3197 3328 2828 
z
" transform="scale(0.015625)"/>
       <path id="DejaVuSans-5d" d="M 1947 4863 
L 1947 -844 
L 622 -844 
L 622 -397 
L 1369 -397 
L 1369 4416 
L 622 4416 
L 622 4863 
L 1947 4863 
z
" transform="scale(0.015625)"/>
      </defs>
      <use xlink:href="#DejaVuSans-50"/>
      <use xlink:href="#DejaVuSans-4d" x="60.302734"/>
      <use xlink:href="#DejaVuSans-4f" x="146.582031"/>
      <use xlink:href="#DejaVuSans-53" x="225.292969"/>
      <use xlink:href="#DejaVuSans-20" x="288.769531"/>
      <use xlink:href="#DejaVuSans-57" x="320.556641"/>
      <use xlink:href="#DejaVuSans-69" x="417.183594"/>
      <use xlink:href="#DejaVuSans-64" x="444.966797"/>
      <use xlink:href="#DejaVuSans-74" x="508.443359"/>
      <use xlink:href="#DejaVuSans-68" x="547.652344"/>
      <use xlink:href="#DejaVuSans-20" x="611.03125"/>
      <use xlink:href="#DejaVuSans-5b" x="642.818359"/>
      <use xlink:href="#DejaVuSans-6e" x="681.832031"/>
      <use xlink:href="#DejaVuSans-6d" x="745.210938"/>
      <use xlink:href="#DejaVuSans-5d" x="842.623047"/>
     </g>
    </g>
   </g>
   <g id="matplotlib.axis_2">
    <g id="ytick_1">
     <g id="line2d_8">
      <path d="M 60.39 154.623719 
L 334.604 154.623719 
" clip-path="url(#pe86e7a7418)" style="fill: none; stroke: #cccccc; stroke-linecap: round"/>
     </g>
     <g id="text_9">
      <!-- 320 -->
      <g style="fill: #262626" transform="translate(29.89375 158.80286)scale(0.11 -0.11)">
       <defs>
        <path id="DejaVuSans-33" d="M 2597 2516 
Q 3050 2419 3304 2112 
Q 3559 1806 3559 1356 
Q 3559 666 3084 287 
Q 2609 -91 1734 -91 
Q 1441 -91 1130 -33 
Q 819 25 488 141 
L 488 750 
Q 750 597 1062 519 
Q 1375 441 1716 441 
Q 2309 441 2620 675 
Q 2931 909 2931 1356 
Q 2931 1769 2642 2001 
Q 2353 2234 1838 2234 
L 1294 2234 
L 1294 2753 
L 1863 2753 
Q 2328 2753 2575 2939 
Q 2822 3125 2822 3475 
Q 2822 3834 2567 4026 
Q 2313 4219 1838 4219 
Q 1578 4219 1281 4162 
Q 984 4106 628 3988 
L 628 4550 
Q 988 4650 1302 4700 
Q 1616 4750 1894 4750 
Q 2613 4750 3031 4423 
Q 3450 4097 3450 3541 
Q 3450 3153 3228 2886 
Q 3006 2619 2597 2516 
z
" transform="scale(0.015625)"/>
       </defs>
       <use xlink:href="#DejaVuSans-33"/>
       <use xlink:href="#DejaVuSans-32" x="63.623047"/>
       <use xlink:href="#DejaVuSans-30" x="127.246094"/>
      </g>
     </g>
    </g>
    <g id="ytick_2">
     <g id="line2d_9">
      <path d="M 60.39 112.524545 
L 334.604 112.524545 
" clip-path="url(#pe86e7a7418)" style="fill: none; stroke: #cccccc; stroke-linecap: round"/>
     </g>
     <g id="text_10">
      <!-- 340 -->
      <g style="fill: #262626" transform="translate(29.89375 116.703686)scale(0.11 -0.11)">
       <defs>
        <path id="DejaVuSans-34" d="M 2419 4116 
L 825 1625 
L 2419 1625 
L 2419 4116 
z
M 2253 4666 
L 3047 4666 
L 3047 1625 
L 3713 1625 
L 3713 1100 
L 3047 1100 
L 3047 0 
L 2419 0 
L 2419 1100 
L 313 1100 
L 313 1709 
L 2253 4666 
z
" transform="scale(0.015625)"/>
       </defs>
       <use xlink:href="#DejaVuSans-33"/>
       <use xlink:href="#DejaVuSans-34" x="63.623047"/>
       <use xlink:href="#DejaVuSans-30" x="127.246094"/>
      </g>
     </g>
    </g>
    <g id="ytick_3">
     <g id="line2d_10">
      <path d="M 60.39 70.425372 
L 334.604 70.425372 
" clip-path="url(#pe86e7a7418)" style="fill: none; stroke: #cccccc; stroke-linecap: round"/>
     </g>
     <g id="text_11">
      <!-- 360 -->
      <g style="fill: #262626" transform="translate(29.89375 74.604513)scale(0.11 -0.11)">
       <defs>
        <path id="DejaVuSans-36" d="M 2113 2584 
Q 1688 2584 1439 2293 
Q 1191 2003 1191 1497 
Q 1191 994 1439 701 
Q 1688 409 2113 409 
Q 2538 409 2786 701 
Q 3034 994 3034 1497 
Q 3034 2003 2786 2293 
Q 2538 2584 2113 2584 
z
M 3366 4563 
L 3366 3988 
Q 3128 4100 2886 4159 
Q 2644 4219 2406 4219 
Q 1781 4219 1451 3797 
Q 1122 3375 1075 2522 
Q 1259 2794 1537 2939 
Q 1816 3084 2150 3084 
Q 2853 3084 3261 2657 
Q 3669 2231 3669 1497 
Q 3669 778 3244 343 
Q 2819 -91 2113 -91 
Q 1303 -91 875 529 
Q 447 1150 447 2328 
Q 447 3434 972 4092 
Q 1497 4750 2381 4750 
Q 2619 4750 2861 4703 
Q 3103 4656 3366 4563 
z
" transform="scale(0.015625)"/>
       </defs>
       <use xlink:href="#DejaVuSans-33"/>
       <use xlink:href="#DejaVuSans-36" x="63.623047"/>
       <use xlink:href="#DejaVuSans-30" x="127.246094"/>
      </g>
     </g>
    </g>
    <g id="ytick_4">
     <g id="line2d_11">
      <path d="M 60.39 28.326198 
L 334.604 28.326198 
" clip-path="url(#pe86e7a7418)" style="fill: none; stroke: #cccccc; stroke-linecap: round"/>
     </g>
     <g id="text_12">
      <!-- 380 -->
      <g style="fill: #262626" transform="translate(29.89375 32.505339)scale(0.11 -0.11)">
       <defs>
        <path id="DejaVuSans-38" d="M 2034 2216 
Q 1584 2216 1326 1975 
Q 1069 1734 1069 1313 
Q 1069 891 1326 650 
Q 1584 409 2034 409 
Q 2484 409 2743 651 
Q 3003 894 3003 1313 
Q 3003 1734 2745 1975 
Q 2488 2216 2034 2216 
z
M 1403 2484 
Q 997 2584 770 2862 
Q 544 3141 544 3541 
Q 544 4100 942 4425 
Q 1341 4750 2034 4750 
Q 2731 4750 3128 4425 
Q 3525 4100 3525 3541 
Q 3525 3141 3298 2862 
Q 3072 2584 2669 2484 
Q 3125 2378 3379 2068 
Q 3634 1759 3634 1313 
Q 3634 634 3220 271 
Q 2806 -91 2034 -91 
Q 1263 -91 848 271 
Q 434 634 434 1313 
Q 434 1759 690 2068 
Q 947 2378 1403 2484 
z
M 1172 3481 
Q 1172 3119 1398 2916 
Q 1625 2713 2034 2713 
Q 2441 2713 2670 2916 
Q 2900 3119 2900 3481 
Q 2900 3844 2670 4047 
Q 2441 4250 2034 4250 
Q 1625 4250 1398 4047 
Q 1172 3844 1172 3481 
z
" transform="scale(0.015625)"/>
       </defs>
       <use xlink:href="#DejaVuSans-33"/>
       <use xlink:href="#DejaVuSans-38" x="63.623047"/>
       <use xlink:href="#DejaVuSans-30" x="127.246094"/>
      </g>
     </g>
    </g>
    <g id="text_13">
     <!-- SS Voltage [mV] -->
     <g style="fill: #262626" transform="translate(23.398125 137.94)rotate(-90)scale(0.12 -0.12)">
      <defs>
       <path id="DejaVuSans-56" d="M 1831 0 
L 50 4666 
L 709 4666 
L 2188 738 
L 3669 4666 
L 4325 4666 
L 2547 0 
L 1831 0 
z
" transform="scale(0.015625)"/>
       <path id="DejaVuSans-6f" d="M 1959 3097 
Q 1497 3097 1228 2736 
Q 959 2375 959 1747 
Q 959 1119 1226 758 
Q 1494 397 1959 397 
Q 2419 397 2687 759 
Q 2956 1122 2956 1747 
Q 2956 2369 2687 2733 
Q 2419 3097 1959 3097 
z
M 1959 3584 
Q 2709 3584 3137 3096 
Q 3566 2609 3566 1747 
Q 3566 888 3137 398 
Q 2709 -91 1959 -91 
Q 1206 -91 779 398 
Q 353 888 353 1747 
Q 353 2609 779 3096 
Q 1206 3584 1959 3584 
z
" transform="scale(0.015625)"/>
       <path id="DejaVuSans-6c" d="M 603 4863 
L 1178 4863 
L 1178 0 
L 603 0 
L 603 4863 
z
" transform="scale(0.015625)"/>
       <path id="DejaVuSans-61" d="M 2194 1759 
Q 1497 1759 1228 1600 
Q 959 1441 959 1056 
Q 959 750 1161 570 
Q 1363 391 1709 391 
Q 2188 391 2477 730 
Q 2766 1069 2766 1631 
L 2766 1759 
L 2194 1759 
z
M 3341 1997 
L 3341 0 
L 2766 0 
L 2766 531 
Q 2569 213 2275 61 
Q 1981 -91 1556 -91 
Q 1019 -91 701 211 
Q 384 513 384 1019 
Q 384 1609 779 1909 
Q 1175 2209 1959 2209 
L 2766 2209 
L 2766 2266 
Q 2766 2663 2505 2880 
Q 2244 3097 1772 3097 
Q 1472 3097 1187 3025 
Q 903 2953 641 2809 
L 641 3341 
Q 956 3463 1253 3523 
Q 1550 3584 1831 3584 
Q 2591 3584 2966 3190 
Q 3341 2797 3341 1997 
z
" transform="scale(0.015625)"/>
       <path id="DejaVuSans-67" d="M 2906 1791 
Q 2906 2416 2648 2759 
Q 2391 3103 1925 3103 
Q 1463 3103 1205 2759 
Q 947 2416 947 1791 
Q 947 1169 1205 825 
Q 1463 481 1925 481 
Q 2391 481 2648 825 
Q 2906 1169 2906 1791 
z
M 3481 434 
Q 3481 -459 3084 -895 
Q 2688 -1331 1869 -1331 
Q 1566 -1331 1297 -1286 
Q 1028 -1241 775 -1147 
L 775 -588 
Q 1028 -725 1275 -790 
Q 1522 -856 1778 -856 
Q 2344 -856 2625 -561 
Q 2906 -266 2906 331 
L 2906 616 
Q 2728 306 2450 153 
Q 2172 0 1784 0 
Q 1141 0 747 490 
Q 353 981 353 1791 
Q 353 2603 747 3093 
Q 1141 3584 1784 3584 
Q 2172 3584 2450 3431 
Q 2728 3278 2906 2969 
L 2906 3500 
L 3481 3500 
L 3481 434 
z
" transform="scale(0.015625)"/>
       <path id="DejaVuSans-65" d="M 3597 1894 
L 3597 1613 
L 953 1613 
Q 991 1019 1311 708 
Q 1631 397 2203 397 
Q 2534 397 2845 478 
Q 3156 559 3463 722 
L 3463 178 
Q 3153 47 2828 -22 
Q 2503 -91 2169 -91 
Q 1331 -91 842 396 
Q 353 884 353 1716 
Q 353 2575 817 3079 
Q 1281 3584 2069 3584 
Q 2775 3584 3186 3129 
Q 3597 2675 3597 1894 
z
M 3022 2063 
Q 3016 2534 2758 2815 
Q 2500 3097 2075 3097 
Q 1594 3097 1305 2825 
Q 1016 2553 972 2059 
L 3022 2063 
z
" transform="scale(0.015625)"/>
      </defs>
      <use xlink:href="#DejaVuSans-53"/>
      <use xlink:href="#DejaVuSans-53" x="63.476562"/>
      <use xlink:href="#DejaVuSans-20" x="126.953125"/>
      <use xlink:href="#DejaVuSans-56" x="158.740234"/>
      <use xlink:href="#DejaVuSans-6f" x="219.398438"/>
      <use xlink:href="#DejaVuSans-6c" x="280.580078"/>
      <use xlink:href="#DejaVuSans-74" x="308.363281"/>
      <use xlink:href="#DejaVuSans-61" x="347.572266"/>
      <use xlink:href="#DejaVuSans-67" x="408.851562"/>
      <use xlink:href="#DejaVuSans-65" x="472.328125"/>
      <use xlink:href="#DejaVuSans-20" x="533.851562"/>
      <use xlink:href="#DejaVuSans-5b" x="565.638672"/>
      <use xlink:href="#DejaVuSans-6d" x="604.652344"/>
      <use xlink:href="#DejaVuSans-56" x="702.064453"/>
      <use xlink:href="#DejaVuSans-5d" x="770.472656"/>
     </g>
    </g>
   </g>
   <g id="line2d_12">
    <path d="M 72.854273 123.049339 
L 75.347127 119.049917 
L 77.839982 115.050496 
L 80.332836 111.472066 
L 82.825691 108.314628 
L 85.318545 105.15719 
L 87.8114 102.420744 
L 90.304255 99.684298 
L 92.797109 97.158347 
L 95.289964 94.632397 
L 97.782818 92.316942 
L 100.275673 90.211983 
L 102.768527 88.107025 
L 105.261382 86.212562 
L 107.754236 84.318099 
L 110.247091 82.634132 
L 112.739945 80.739669 
L 115.2328 79.055702 
L 117.725655 77.582231 
L 120.218509 76.10876 
L 122.711364 74.635289 
L 125.204218 73.161818 
L 127.697073 71.688347 
L 130.189927 70.425372 
L 132.682782 69.162397 
L 135.175636 67.899421 
L 137.668491 66.636446 
L 140.161345 65.373471 
L 142.6542 64.320992 
L 145.147055 63.268512 
L 147.639909 62.216033 
L 150.132764 61.163554 
L 152.625618 60.111074 
L 155.118473 59.058595 
L 157.611327 58.006116 
L 160.104182 57.164132 
L 162.597036 56.111653 
L 165.089891 55.269669 
L 167.582745 54.427686 
L 170.0756 53.585702 
L 172.568455 52.533223 
L 175.061309 51.901736 
L 177.554164 51.059752 
L 180.047018 50.217769 
L 182.539873 49.375785 
L 185.032727 48.533802 
L 187.525582 47.902314 
L 190.018436 47.060331 
L 192.511291 46.428843 
L 195.004145 45.58686 
L 197.497 44.955372 
L 199.989855 44.323884 
L 202.482709 43.692397 
L 204.975564 42.850413 
L 207.502335 42.218926 
L 209.876482 41.587438 
L 212.420211 40.95595 
L 214.96394 40.324463 
L 217.507669 39.692975 
L 219.881816 39.061488 
L 222.425545 38.640496 
L 224.969275 38.009008 
L 227.343422 37.377521 
L 229.887151 36.746033 
L 232.43088 36.325041 
L 234.805027 35.693554 
L 237.348756 35.062066 
L 239.892485 34.641074 
L 242.436215 34.009587 
L 244.810362 33.588595 
L 247.354091 32.957107 
L 249.89782 32.536116 
L 252.271967 32.115124 
L 254.815696 31.483636 
L 257.359425 31.062645 
L 259.733573 30.641653 
L 262.277302 30.010165 
L 264.821031 29.589174 
L 267.36476 29.168182 
L 269.738907 28.74719 
L 272.282636 28.115702 
L 274.826365 27.694711 
L 277.200513 27.273719 
L 279.744242 26.852727 
L 282.287971 26.431736 
L 284.662118 26.010744 
L 287.205847 25.589752 
L 289.749576 25.16876 
L 292.293306 24.747769 
L 294.667453 24.326777 
L 297.211182 23.905785 
L 299.754911 23.484793 
L 302.129058 23.063802 
L 304.672787 22.64281 
L 307.216516 22.221818 
L 309.590664 21.800826 
L 312.134393 21.590331 
L 314.678122 21.169339 
L 317.221851 20.748347 
L 319.595998 20.327355 
L 322.139727 19.906364 
" clip-path="url(#pe86e7a7418)" style="fill: none; stroke: #a5cd90; stroke-width: 2; stroke-linecap: round"/>
   </g>
   <g id="line2d_13">
    <path d="M 72.854273 132.100661 
L 75.347127 127.890744 
L 77.839982 124.312314 
L 80.332836 120.733884 
L 82.825691 117.576446 
L 85.318545 114.629504 
L 87.8114 111.682562 
L 90.304255 109.156612 
L 92.797109 106.630661 
L 95.289964 104.315207 
L 97.782818 101.999752 
L 100.275673 99.894793 
L 102.768527 97.789835 
L 105.261382 95.895372 
L 107.754236 94.211405 
L 110.247091 92.316942 
L 112.739945 90.632975 
L 115.2328 88.949008 
L 117.725655 87.475537 
L 120.218509 86.002066 
L 122.711364 84.528595 
L 125.204218 83.055124 
L 127.697073 81.792149 
L 130.189927 80.529174 
L 132.682782 79.055702 
L 135.175636 78.003223 
L 137.668491 76.740248 
L 140.161345 75.477273 
L 142.6542 74.424793 
L 145.147055 73.372314 
L 147.639909 72.319835 
L 150.132764 71.267355 
L 152.625618 70.214876 
L 155.118473 69.162397 
L 157.611327 68.320413 
L 160.104182 67.267934 
L 162.597036 66.42595 
L 165.089891 65.583967 
L 167.582745 64.741983 
L 170.0756 63.9 
L 172.568455 63.058017 
L 175.061309 62.216033 
L 177.554164 61.37405 
L 180.047018 60.532066 
L 182.539873 59.690083 
L 185.032727 59.058595 
L 187.525582 58.216612 
L 190.018436 57.585124 
L 192.511291 56.74314 
L 195.004145 56.111653 
L 197.497 55.480165 
L 199.989855 54.848678 
L 202.482709 54.006694 
L 204.975564 53.375207 
L 207.502335 52.743719 
L 209.876482 52.112231 
L 212.420211 51.480744 
L 214.96394 50.849256 
L 217.507669 50.217769 
L 219.881816 49.796777 
L 222.425545 49.165289 
L 224.969275 48.533802 
L 227.343422 47.902314 
L 229.887151 47.481322 
L 232.43088 46.849835 
L 234.805027 46.218347 
L 237.348756 45.797355 
L 239.892485 45.165868 
L 242.436215 44.744876 
L 244.810362 44.113388 
L 247.354091 43.692397 
L 249.89782 43.271405 
L 252.271967 42.639917 
L 254.815696 42.218926 
L 257.359425 41.797934 
L 259.733573 41.166446 
L 262.277302 40.745455 
L 264.821031 40.324463 
L 267.36476 39.903471 
L 269.738907 39.482479 
L 272.282636 38.850992 
L 274.826365 38.43 
L 277.200513 38.009008 
L 279.744242 37.588017 
L 282.287971 37.167025 
L 284.662118 36.746033 
L 287.205847 36.325041 
L 289.749576 35.90405 
L 292.293306 35.483058 
L 294.667453 35.062066 
L 297.211182 34.641074 
L 299.754911 34.220083 
L 302.129058 33.799091 
L 304.672787 33.588595 
L 307.216516 33.167603 
L 309.590664 32.746612 
L 312.134393 32.32562 
L 314.678122 31.904628 
L 317.221851 31.483636 
L 319.595998 31.27314 
L 322.139727 30.852149 
" clip-path="url(#pe86e7a7418)" style="fill: none; stroke: #89bf91; stroke-width: 2; stroke-linecap: round"/>
   </g>
   <g id="line2d_14">
    <path d="M 72.854273 138.415537 
L 75.347127 134.626612 
L 77.839982 130.837686 
L 80.332836 127.469752 
L 82.825691 124.312314 
L 85.318545 121.365372 
L 87.8114 118.628926 
L 90.304255 116.102975 
L 92.797109 113.577025 
L 95.289964 111.26157 
L 97.782818 109.156612 
L 100.275673 107.051653 
L 102.768527 104.946694 
L 105.261382 103.052231 
L 107.754236 101.368264 
L 110.247091 99.684298 
L 112.739945 98.000331 
L 115.2328 96.316364 
L 117.725655 94.842893 
L 120.218509 93.369421 
L 122.711364 91.89595 
L 125.204218 90.422479 
L 127.697073 89.159504 
L 130.189927 87.896529 
L 132.682782 86.633554 
L 135.175636 85.370579 
L 137.668491 84.318099 
L 140.161345 83.055124 
L 142.6542 82.002645 
L 145.147055 80.950165 
L 147.639909 79.897686 
L 150.132764 78.845207 
L 152.625618 77.792727 
L 155.118473 76.950744 
L 157.611327 75.898264 
L 160.104182 75.056281 
L 162.597036 74.214298 
L 165.089891 73.161818 
L 167.582745 72.319835 
L 170.0756 71.477851 
L 172.568455 70.635868 
L 175.061309 69.793884 
L 177.554164 69.162397 
L 180.047018 68.320413 
L 182.539873 67.47843 
L 185.032727 66.846942 
L 187.525582 66.004959 
L 190.018436 65.373471 
L 192.511291 64.741983 
L 195.004145 63.9 
L 197.497 63.268512 
L 199.989855 62.637025 
L 202.482709 62.005537 
L 204.975564 61.37405 
L 207.502335 60.742562 
L 209.876482 60.111074 
L 212.420211 59.479587 
L 214.96394 58.848099 
L 217.507669 58.216612 
L 219.881816 57.585124 
L 222.425545 57.164132 
L 224.969275 56.532645 
L 227.343422 55.901157 
L 229.887151 55.480165 
L 232.43088 54.848678 
L 234.805027 54.21719 
L 237.348756 53.796198 
L 239.892485 53.164711 
L 242.436215 52.743719 
L 244.810362 52.322727 
L 247.354091 51.69124 
L 249.89782 51.270248 
L 252.271967 50.63876 
L 254.815696 50.217769 
L 257.359425 49.796777 
L 259.733573 49.375785 
L 262.277302 48.744298 
L 264.821031 48.323306 
L 267.36476 47.902314 
L 269.738907 47.481322 
L 272.282636 47.060331 
L 274.826365 46.639339 
L 277.200513 46.218347 
L 279.744242 45.797355 
L 282.287971 45.376364 
L 284.662118 44.955372 
L 287.205847 44.53438 
L 289.749576 44.113388 
L 292.293306 43.692397 
L 294.667453 43.271405 
L 297.211182 42.850413 
L 299.754911 42.429421 
L 302.129058 42.00843 
L 304.672787 41.587438 
L 307.216516 41.166446 
L 309.590664 40.95595 
L 312.134393 40.534959 
L 314.678122 40.113967 
L 317.221851 39.692975 
L 319.595998 39.482479 
L 322.139727 39.061488 
" clip-path="url(#pe86e7a7418)" style="fill: none; stroke: #6db290; stroke-width: 2; stroke-linecap: round"/>
   </g>
   <g id="line2d_15">
    <path d="M 72.854273 143.467438 
L 75.347127 139.468017 
L 77.839982 135.889587 
L 80.332836 132.521653 
L 82.825691 129.574711 
L 85.318545 126.627769 
L 87.8114 123.891322 
L 90.304255 121.365372 
L 92.797109 119.049917 
L 95.289964 116.734463 
L 97.782818 114.629504 
L 100.275673 112.524545 
L 102.768527 110.419587 
L 105.261382 108.73562 
L 107.754236 106.841157 
L 110.247091 105.15719 
L 112.739945 103.473223 
L 115.2328 101.999752 
L 117.725655 100.315785 
L 120.218509 99.05281 
L 122.711364 97.579339 
L 125.204218 96.105868 
L 127.697073 94.842893 
L 130.189927 93.579917 
L 132.682782 92.316942 
L 135.175636 91.264463 
L 137.668491 90.001488 
L 140.161345 88.949008 
L 142.6542 87.686033 
L 145.147055 86.633554 
L 147.639909 85.581074 
L 150.132764 84.739091 
L 152.625618 83.686612 
L 155.118473 82.634132 
L 157.611327 81.792149 
L 160.104182 80.950165 
L 162.597036 79.897686 
L 165.089891 79.055702 
L 167.582745 78.213719 
L 170.0756 77.371736 
L 172.568455 76.529752 
L 175.061309 75.898264 
L 177.554164 75.056281 
L 180.047018 74.214298 
L 182.539873 73.58281 
L 185.032727 72.740826 
L 187.525582 72.109339 
L 190.018436 71.267355 
L 192.511291 70.635868 
L 195.004145 70.00438 
L 197.497 69.162397 
L 199.989855 68.530909 
L 202.482709 67.899421 
L 204.975564 67.267934 
L 207.502335 66.636446 
L 209.876482 66.004959 
L 212.420211 65.373471 
L 214.96394 64.952479 
L 217.507669 64.320992 
L 219.881816 63.689504 
L 222.425545 63.058017 
L 224.969275 62.637025 
L 227.343422 62.005537 
L 229.887151 61.37405 
L 232.43088 60.953058 
L 234.805027 60.32157 
L 237.348756 59.900579 
L 239.892485 59.269091 
L 242.436215 58.848099 
L 244.810362 58.216612 
L 247.354091 57.79562 
L 249.89782 57.374628 
L 252.271967 56.74314 
L 254.815696 56.322149 
L 257.359425 55.901157 
L 259.733573 55.480165 
L 262.277302 55.059174 
L 264.821031 54.427686 
L 267.36476 54.006694 
L 269.738907 53.585702 
L 272.282636 53.164711 
L 274.826365 52.743719 
L 277.200513 52.322727 
L 279.744242 51.901736 
L 282.287971 51.480744 
L 284.662118 51.059752 
L 287.205847 50.63876 
L 289.749576 50.217769 
L 292.293306 49.796777 
L 294.667453 49.375785 
L 297.211182 48.954793 
L 299.754911 48.533802 
L 302.129058 48.11281 
L 304.672787 47.902314 
L 307.216516 47.481322 
L 309.590664 47.060331 
L 312.134393 46.639339 
L 314.678122 46.428843 
L 317.221851 46.007851 
L 319.595998 45.58686 
L 322.139727 45.165868 
" clip-path="url(#pe86e7a7418)" style="fill: none; stroke: #57a490; stroke-width: 2; stroke-linecap: round"/>
   </g>
   <g id="line2d_16">
    <path d="M 72.854273 147.256364 
L 75.347127 143.467438 
L 77.839982 139.889008 
L 80.332836 136.521074 
L 82.825691 133.574132 
L 85.318545 130.62719 
L 87.8114 128.10124 
L 90.304255 125.575289 
L 92.797109 123.259835 
L 95.289964 120.94438 
L 97.782818 118.839421 
L 100.275673 116.734463 
L 102.768527 114.84 
L 105.261382 112.945537 
L 107.754236 111.26157 
L 110.247091 109.577603 
L 112.739945 107.893636 
L 115.2328 106.209669 
L 117.725655 104.736198 
L 120.218509 103.262727 
L 122.711364 101.999752 
L 125.204218 100.526281 
L 127.697073 99.263306 
L 130.189927 98.000331 
L 132.682782 96.737355 
L 135.175636 95.684876 
L 137.668491 94.421901 
L 140.161345 93.369421 
L 142.6542 92.316942 
L 145.147055 91.264463 
L 147.639909 90.211983 
L 150.132764 89.159504 
L 152.625618 88.317521 
L 155.118473 87.265041 
L 157.611327 86.423058 
L 160.104182 85.370579 
L 162.597036 84.528595 
L 165.089891 83.686612 
L 167.582745 82.844628 
L 170.0756 82.002645 
L 172.568455 81.160661 
L 175.061309 80.529174 
L 177.554164 79.68719 
L 180.047018 78.845207 
L 182.539873 78.213719 
L 185.032727 77.371736 
L 187.525582 76.740248 
L 190.018436 76.10876 
L 192.511291 75.266777 
L 195.004145 74.635289 
L 197.497 74.003802 
L 199.989855 73.372314 
L 202.482709 72.740826 
L 204.975564 72.109339 
L 207.502335 71.477851 
L 209.876482 70.846364 
L 212.420211 70.214876 
L 214.96394 69.583388 
L 217.507669 68.951901 
L 219.881816 68.530909 
L 222.425545 67.899421 
L 224.969275 67.267934 
L 227.343422 66.846942 
L 229.887151 66.215455 
L 232.43088 65.583967 
L 234.805027 65.162975 
L 237.348756 64.531488 
L 239.892485 64.110496 
L 242.436215 63.689504 
L 244.810362 63.058017 
L 247.354091 62.637025 
L 249.89782 62.216033 
L 252.271967 61.584545 
L 254.815696 61.163554 
L 257.359425 60.742562 
L 259.733573 60.32157 
L 262.277302 59.690083 
L 264.821031 59.269091 
L 267.36476 58.848099 
L 269.738907 58.427107 
L 272.282636 58.006116 
L 274.826365 57.585124 
L 277.200513 57.164132 
L 279.744242 56.74314 
L 282.287971 56.322149 
L 284.662118 55.901157 
L 287.205847 55.480165 
L 289.749576 55.059174 
L 292.293306 54.638182 
L 294.667453 54.21719 
L 297.211182 53.796198 
L 299.754911 53.375207 
L 302.129058 53.164711 
L 304.672787 52.743719 
L 307.216516 52.322727 
L 309.590664 51.901736 
L 312.134393 51.480744 
L 314.678122 51.270248 
L 317.221851 50.849256 
L 319.595998 50.428264 
L 322.139727 50.007273 
" clip-path="url(#pe86e7a7418)" style="fill: none; stroke: #44948f; stroke-width: 2; stroke-linecap: round"/>
   </g>
   <g id="line2d_17">
    <path d="M 72.854273 150.203306 
L 75.347127 146.41438 
L 77.839982 143.046446 
L 80.332836 139.889008 
L 82.825691 136.73157 
L 85.318545 133.995124 
L 87.8114 131.258678 
L 90.304255 128.943223 
L 92.797109 126.417273 
L 95.289964 124.312314 
L 97.782818 122.207355 
L 100.275673 120.102397 
L 102.768527 118.207934 
L 105.261382 116.313471 
L 107.754236 114.629504 
L 110.247091 112.945537 
L 112.739945 111.472066 
L 115.2328 109.788099 
L 117.725655 108.314628 
L 120.218509 106.841157 
L 122.711364 105.578182 
L 125.204218 104.104711 
L 127.697073 102.841736 
L 130.189927 101.57876 
L 132.682782 100.526281 
L 135.175636 99.263306 
L 137.668491 98.210826 
L 140.161345 96.947851 
L 142.6542 95.895372 
L 145.147055 94.842893 
L 147.639909 93.790413 
L 150.132764 92.94843 
L 152.625618 91.89595 
L 155.118473 91.053967 
L 157.611327 90.001488 
L 160.104182 89.159504 
L 162.597036 88.317521 
L 165.089891 87.475537 
L 167.582745 86.633554 
L 170.0756 85.79157 
L 172.568455 84.949587 
L 175.061309 84.107603 
L 177.554164 83.476116 
L 180.047018 82.634132 
L 182.539873 82.002645 
L 185.032727 81.160661 
L 187.525582 80.529174 
L 190.018436 79.68719 
L 192.511291 79.055702 
L 195.004145 78.424215 
L 197.497 77.792727 
L 199.989855 77.16124 
L 202.482709 76.529752 
L 204.975564 75.898264 
L 207.502335 75.266777 
L 209.876482 74.635289 
L 212.420211 74.003802 
L 214.96394 73.372314 
L 217.507669 72.740826 
L 219.881816 72.319835 
L 222.425545 71.688347 
L 224.969275 71.05686 
L 227.343422 70.635868 
L 229.887151 70.00438 
L 232.43088 69.583388 
L 234.805027 68.951901 
L 237.348756 68.530909 
L 239.892485 67.899421 
L 242.436215 67.47843 
L 244.810362 66.846942 
L 247.354091 66.42595 
L 249.89782 66.004959 
L 252.271967 65.373471 
L 254.815696 64.952479 
L 257.359425 64.531488 
L 259.733573 64.110496 
L 262.277302 63.689504 
L 264.821031 63.058017 
L 267.36476 62.637025 
L 269.738907 62.216033 
L 272.282636 61.795041 
L 274.826365 61.37405 
L 277.200513 60.953058 
L 279.744242 60.532066 
L 282.287971 60.111074 
L 284.662118 59.690083 
L 287.205847 59.269091 
L 289.749576 58.848099 
L 292.293306 58.427107 
L 294.667453 58.006116 
L 297.211182 57.79562 
L 299.754911 57.374628 
L 302.129058 56.953636 
L 304.672787 56.532645 
L 307.216516 56.111653 
L 309.590664 55.901157 
L 312.134393 55.480165 
L 314.678122 55.059174 
L 317.221851 54.638182 
L 319.595998 54.427686 
L 322.139727 54.006694 
" clip-path="url(#pe86e7a7418)" style="fill: none; stroke: #33858d; stroke-width: 2; stroke-linecap: round"/>
   </g>
   <g id="line2d_18">
    <path d="M 72.854273 152.729256 
L 75.347127 148.940331 
L 77.839982 145.572397 
L 80.332836 142.414959 
L 82.825691 139.468017 
L 85.318545 136.521074 
L 87.8114 133.995124 
L 90.304255 131.469174 
L 92.797109 129.153719 
L 95.289964 127.04876 
L 97.782818 124.943802 
L 100.275673 122.838843 
L 102.768527 120.94438 
L 105.261382 119.260413 
L 107.754236 117.576446 
L 110.247091 115.892479 
L 112.739945 114.208512 
L 115.2328 112.735041 
L 117.725655 111.26157 
L 120.218509 109.788099 
L 122.711364 108.525124 
L 125.204218 107.051653 
L 127.697073 105.788678 
L 130.189927 104.525702 
L 132.682782 103.473223 
L 135.175636 102.210248 
L 137.668491 101.157769 
L 140.161345 99.894793 
L 142.6542 98.842314 
L 145.147055 97.789835 
L 147.639909 96.947851 
L 150.132764 95.895372 
L 152.625618 94.842893 
L 155.118473 94.000909 
L 157.611327 92.94843 
L 160.104182 92.106446 
L 162.597036 91.264463 
L 165.089891 90.422479 
L 167.582745 89.580496 
L 170.0756 88.738512 
L 172.568455 87.896529 
L 175.061309 87.265041 
L 177.554164 86.423058 
L 180.047018 85.581074 
L 182.539873 84.949587 
L 185.032727 84.107603 
L 187.525582 83.476116 
L 190.018436 82.844628 
L 192.511291 82.21314 
L 195.004145 81.371157 
L 197.497 80.739669 
L 199.989855 80.108182 
L 202.482709 79.476694 
L 204.975564 78.845207 
L 207.502335 78.213719 
L 209.876482 77.582231 
L 212.420211 76.950744 
L 214.96394 76.529752 
L 217.507669 75.898264 
L 219.881816 75.266777 
L 222.425545 74.635289 
L 224.969275 74.214298 
L 227.343422 73.58281 
L 229.887151 73.161818 
L 232.43088 72.530331 
L 234.805027 72.109339 
L 237.348756 71.477851 
L 239.892485 71.05686 
L 242.436215 70.425372 
L 244.810362 70.00438 
L 247.354091 69.583388 
L 249.89782 68.951901 
L 252.271967 68.530909 
L 254.815696 68.109917 
L 257.359425 67.688926 
L 259.733573 67.057438 
L 262.277302 66.636446 
L 264.821031 66.215455 
L 267.36476 65.794463 
L 269.738907 65.373471 
L 272.282636 64.952479 
L 274.826365 64.531488 
L 277.200513 64.110496 
L 279.744242 63.689504 
L 282.287971 63.268512 
L 284.662118 62.847521 
L 287.205847 62.426529 
L 289.749576 62.005537 
L 292.293306 61.584545 
L 294.667453 61.163554 
L 297.211182 60.742562 
L 299.754911 60.532066 
L 302.129058 60.111074 
L 304.672787 59.690083 
L 307.216516 59.269091 
L 309.590664 58.848099 
L 312.134393 58.637603 
L 314.678122 58.216612 
L 317.221851 57.79562 
L 319.595998 57.374628 
L 322.139727 57.164132 
" clip-path="url(#pe86e7a7418)" style="fill: none; stroke: #24768b; stroke-width: 2; stroke-linecap: round"/>
   </g>
   <g id="line2d_19">
    <path d="M 72.854273 154.623719 
L 75.347127 151.045289 
L 77.839982 147.677355 
L 80.332836 144.519917 
L 82.825691 141.572975 
L 85.318545 138.836529 
L 87.8114 136.310579 
L 90.304255 133.784628 
L 92.797109 131.469174 
L 95.289964 129.364215 
L 97.782818 127.259256 
L 100.275673 125.154298 
L 102.768527 123.259835 
L 105.261382 121.575868 
L 107.754236 119.891901 
L 110.247091 118.207934 
L 112.739945 116.523967 
L 115.2328 115.050496 
L 117.725655 113.577025 
L 120.218509 112.103554 
L 122.711364 110.840579 
L 125.204218 109.577603 
L 127.697073 108.104132 
L 130.189927 107.051653 
L 132.682782 105.788678 
L 135.175636 104.525702 
L 137.668491 103.473223 
L 140.161345 102.420744 
L 142.6542 101.368264 
L 145.147055 100.315785 
L 147.639909 99.263306 
L 150.132764 98.210826 
L 152.625618 97.368843 
L 155.118473 96.316364 
L 157.611327 95.47438 
L 160.104182 94.632397 
L 162.597036 93.790413 
L 165.089891 92.94843 
L 167.582745 92.106446 
L 170.0756 91.264463 
L 172.568455 90.422479 
L 175.061309 89.580496 
L 177.554164 88.949008 
L 180.047018 88.107025 
L 182.539873 87.475537 
L 185.032727 86.633554 
L 187.525582 86.002066 
L 190.018436 85.370579 
L 192.511291 84.528595 
L 195.004145 83.897107 
L 197.497 83.26562 
L 199.989855 82.634132 
L 202.482709 82.002645 
L 204.975564 81.371157 
L 207.502335 80.739669 
L 209.876482 80.108182 
L 212.420211 79.476694 
L 214.96394 78.845207 
L 217.507669 78.424215 
L 219.881816 77.792727 
L 222.425545 77.16124 
L 224.969275 76.740248 
L 227.343422 76.10876 
L 229.887151 75.477273 
L 232.43088 75.056281 
L 234.805027 74.424793 
L 237.348756 74.003802 
L 239.892485 73.58281 
L 242.436215 72.951322 
L 244.810362 72.530331 
L 247.354091 72.109339 
L 249.89782 71.477851 
L 252.271967 71.05686 
L 254.815696 70.635868 
L 257.359425 70.00438 
L 259.733573 69.583388 
L 262.277302 69.162397 
L 264.821031 68.741405 
L 267.36476 68.320413 
L 269.738907 67.899421 
L 272.282636 67.47843 
L 274.826365 67.057438 
L 277.200513 66.636446 
L 279.744242 66.215455 
L 282.287971 65.794463 
L 284.662118 65.373471 
L 287.205847 64.952479 
L 289.749576 64.531488 
L 292.293306 64.110496 
L 294.667453 63.689504 
L 297.211182 63.268512 
L 299.754911 62.847521 
L 302.129058 62.637025 
L 304.672787 62.216033 
L 307.216516 61.795041 
L 309.590664 61.37405 
L 312.134393 61.163554 
L 314.678122 60.742562 
L 317.221851 60.32157 
L 319.595998 59.900579 
L 322.139727 59.690083 
" clip-path="url(#pe86e7a7418)" style="fill: none; stroke: #1c6689; stroke-width: 2; stroke-linecap: round"/>
   </g>
   <g id="line2d_20">
    <path d="M 72.854273 156.307686 
L 75.347127 152.729256 
L 77.839982 149.361322 
L 80.332836 146.203884 
L 82.825691 143.256942 
L 85.318545 140.520496 
L 87.8114 137.994545 
L 90.304255 135.679091 
L 92.797109 133.363636 
L 95.289964 131.048182 
L 97.782818 129.153719 
L 100.275673 127.04876 
L 102.768527 125.154298 
L 105.261382 123.470331 
L 107.754236 121.786364 
L 110.247091 120.102397 
L 112.739945 118.41843 
L 115.2328 116.944959 
L 117.725655 115.471488 
L 120.218509 113.998017 
L 122.711364 112.735041 
L 125.204218 111.472066 
L 127.697073 110.209091 
L 130.189927 108.946116 
L 132.682782 107.68314 
L 135.175636 106.630661 
L 137.668491 105.367686 
L 140.161345 104.315207 
L 142.6542 103.262727 
L 145.147055 102.210248 
L 147.639909 101.157769 
L 150.132764 100.315785 
L 152.625618 99.263306 
L 155.118473 98.421322 
L 157.611327 97.368843 
L 160.104182 96.52686 
L 162.597036 95.684876 
L 165.089891 94.842893 
L 167.582745 94.000909 
L 170.0756 93.158926 
L 172.568455 92.316942 
L 175.061309 91.685455 
L 177.554164 90.843471 
L 180.047018 90.001488 
L 182.539873 89.37 
L 185.032727 88.528017 
L 187.525582 87.896529 
L 190.018436 87.265041 
L 192.511291 86.633554 
L 195.004145 85.79157 
L 197.497 85.160083 
L 199.989855 84.528595 
L 202.482709 83.897107 
L 204.975564 83.26562 
L 207.502335 82.634132 
L 209.876482 82.002645 
L 212.420211 81.581653 
L 214.96394 80.950165 
L 217.507669 80.318678 
L 219.881816 79.68719 
L 222.425545 79.266198 
L 224.969275 78.634711 
L 227.343422 78.003223 
L 229.887151 77.582231 
L 232.43088 76.950744 
L 234.805027 76.529752 
L 237.348756 75.898264 
L 239.892485 75.477273 
L 242.436215 75.056281 
L 244.810362 74.424793 
L 247.354091 74.003802 
L 249.89782 73.58281 
L 252.271967 72.951322 
L 254.815696 72.530331 
L 257.359425 72.109339 
L 259.733573 71.688347 
L 262.277302 71.05686 
L 264.821031 70.635868 
L 267.36476 70.214876 
L 269.738907 69.793884 
L 272.282636 69.372893 
L 274.826365 68.951901 
L 277.200513 68.530909 
L 279.744242 68.109917 
L 282.287971 67.688926 
L 284.662118 67.267934 
L 287.205847 66.846942 
L 289.749576 66.42595 
L 292.293306 66.004959 
L 294.667453 65.583967 
L 297.211182 65.373471 
L 299.754911 64.952479 
L 302.129058 64.531488 
L 304.672787 64.110496 
L 307.216516 63.689504 
L 309.590664 63.479008 
L 312.134393 63.058017 
L 314.678122 62.637025 
L 317.221851 62.216033 
L 319.595998 62.005537 
L 322.139727 61.584545 
" clip-path="url(#pe86e7a7418)" style="fill: none; stroke: #215584; stroke-width: 2; stroke-linecap: round"/>
   </g>
   <g id="line2d_21">
    <path d="M 72.854273 157.570661 
L 75.347127 153.992231 
L 77.839982 150.834793 
L 80.332836 147.677355 
L 82.825691 144.730413 
L 85.318545 141.993967 
L 87.8114 139.468017 
L 90.304255 137.152562 
L 92.797109 134.837107 
L 95.289964 132.732149 
L 97.782818 130.62719 
L 100.275673 128.522231 
L 102.768527 126.838264 
L 105.261382 124.943802 
L 107.754236 123.259835 
L 110.247091 121.575868 
L 112.739945 120.102397 
L 115.2328 118.41843 
L 117.725655 116.944959 
L 120.218509 115.681983 
L 122.711364 114.208512 
L 125.204218 112.945537 
L 127.697073 111.682562 
L 130.189927 110.419587 
L 132.682782 109.156612 
L 135.175636 108.104132 
L 137.668491 107.051653 
L 140.161345 105.788678 
L 142.6542 104.736198 
L 145.147055 103.683719 
L 147.639909 102.841736 
L 150.132764 101.789256 
L 152.625618 100.736777 
L 155.118473 99.894793 
L 157.611327 99.05281 
L 160.104182 98.000331 
L 162.597036 97.158347 
L 165.089891 96.316364 
L 167.582745 95.47438 
L 170.0756 94.632397 
L 172.568455 94.000909 
L 175.061309 93.158926 
L 177.554164 92.316942 
L 180.047018 91.685455 
L 182.539873 90.843471 
L 185.032727 90.211983 
L 187.525582 89.37 
L 190.018436 88.738512 
L 192.511291 88.107025 
L 195.004145 87.475537 
L 197.497 86.84405 
L 199.989855 86.002066 
L 202.482709 85.370579 
L 204.975564 84.739091 
L 207.502335 84.107603 
L 209.876482 83.686612 
L 212.420211 83.055124 
L 214.96394 82.423636 
L 217.507669 81.792149 
L 219.881816 81.160661 
L 222.425545 80.739669 
L 224.969275 80.108182 
L 227.343422 79.68719 
L 229.887151 79.055702 
L 232.43088 78.424215 
L 234.805027 78.003223 
L 237.348756 77.371736 
L 239.892485 76.950744 
L 242.436215 76.529752 
L 244.810362 75.898264 
L 247.354091 75.477273 
L 249.89782 75.056281 
L 252.271967 74.424793 
L 254.815696 74.003802 
L 257.359425 73.58281 
L 259.733573 73.161818 
L 262.277302 72.740826 
L 264.821031 72.109339 
L 267.36476 71.688347 
L 269.738907 71.267355 
L 272.282636 70.846364 
L 274.826365 70.425372 
L 277.200513 70.00438 
L 279.744242 69.583388 
L 282.287971 69.162397 
L 284.662118 68.741405 
L 287.205847 68.320413 
L 289.749576 67.899421 
L 292.293306 67.47843 
L 294.667453 67.057438 
L 297.211182 66.846942 
L 299.754911 66.42595 
L 302.129058 66.004959 
L 304.672787 65.583967 
L 307.216516 65.162975 
L 309.590664 64.741983 
L 312.134393 64.320992 
L 314.678122 64.110496 
L 317.221851 63.689504 
L 319.595998 63.268512 
L 322.139727 62.847521 
" clip-path="url(#pe86e7a7418)" style="fill: none; stroke: #28437b; stroke-width: 2; stroke-linecap: round"/>
   </g>
   <g id="line2d_22">
    <path d="M 72.854273 158.833636 
L 75.347127 155.465702 
L 77.839982 152.097769 
L 80.332836 148.940331 
L 82.825691 146.203884 
L 85.318545 143.467438 
L 87.8114 140.941488 
L 90.304255 138.415537 
L 92.797109 136.310579 
L 95.289964 133.995124 
L 97.782818 132.100661 
L 100.275673 130.206198 
L 102.768527 128.311736 
L 105.261382 126.417273 
L 107.754236 124.733306 
L 110.247091 123.049339 
L 112.739945 121.575868 
L 115.2328 120.102397 
L 117.725655 118.628926 
L 120.218509 117.155455 
L 122.711364 115.892479 
L 125.204218 114.419008 
L 127.697073 113.156033 
L 130.189927 112.103554 
L 132.682782 110.840579 
L 135.175636 109.577603 
L 137.668491 108.525124 
L 140.161345 107.472645 
L 142.6542 106.420165 
L 145.147055 105.367686 
L 147.639909 104.315207 
L 150.132764 103.473223 
L 152.625618 102.420744 
L 155.118473 101.57876 
L 157.611327 100.526281 
L 160.104182 99.684298 
L 162.597036 98.842314 
L 165.089891 98.000331 
L 167.582745 97.158347 
L 170.0756 96.316364 
L 172.568455 95.47438 
L 175.061309 94.842893 
L 177.554164 94.000909 
L 180.047018 93.158926 
L 182.539873 92.527438 
L 185.032727 91.685455 
L 187.525582 91.053967 
L 190.018436 90.422479 
L 192.511291 89.790992 
L 195.004145 88.949008 
L 197.497 88.317521 
L 199.989855 87.686033 
L 202.482709 87.054545 
L 204.975564 86.423058 
L 207.502335 85.79157 
L 209.876482 85.160083 
L 212.420211 84.528595 
L 214.96394 84.107603 
L 217.507669 83.476116 
L 219.881816 82.844628 
L 222.425545 82.423636 
L 224.969275 81.792149 
L 227.343422 81.160661 
L 229.887151 80.739669 
L 232.43088 80.108182 
L 234.805027 79.68719 
L 237.348756 79.055702 
L 239.892485 78.634711 
L 242.436215 78.003223 
L 244.810362 77.582231 
L 247.354091 77.16124 
L 249.89782 76.529752 
L 252.271967 76.10876 
L 254.815696 75.687769 
L 257.359425 75.266777 
L 259.733573 74.635289 
L 262.277302 74.214298 
L 264.821031 73.793306 
L 267.36476 73.372314 
L 269.738907 72.951322 
L 272.282636 72.530331 
L 274.826365 72.109339 
L 277.200513 71.688347 
L 279.744242 71.267355 
L 282.287971 70.846364 
L 284.662118 70.425372 
L 287.205847 70.00438 
L 289.749576 69.583388 
L 292.293306 69.162397 
L 294.667453 68.741405 
L 297.211182 68.320413 
L 299.754911 67.899421 
L 302.129058 67.688926 
L 304.672787 67.267934 
L 307.216516 66.846942 
L 309.590664 66.42595 
L 312.134393 66.215455 
L 314.678122 65.794463 
L 317.221851 65.373471 
L 319.595998 64.952479 
L 322.139727 64.741983 
" clip-path="url(#pe86e7a7418)" style="fill: none; stroke: #2c3172; stroke-width: 2; stroke-linecap: round"/>
   </g>
   <g id="line2d_23"/>
   <g id="line2d_24"/>
   <g id="line2d_25"/>
   <g id="line2d_26"/>
   <g id="line2d_27"/>
   <g id="line2d_28"/>
   <g id="line2d_29"/>
   <g id="patch_3">
    <path d="M 60.39 165.78 
L 60.39 12.96 
" style="fill: none; stroke: #cccccc; stroke-width: 1.25; stroke-linejoin: miter; stroke-linecap: square"/>
   </g>
   <g id="patch_4">
    <path d="M 334.604 165.78 
L 334.604 12.96 
" style="fill: none; stroke: #cccccc; stroke-width: 1.25; stroke-linejoin: miter; stroke-linecap: square"/>
   </g>
   <g id="patch_5">
    <path d="M 60.39 165.78 
L 334.604 165.78 
" style="fill: none; stroke: #cccccc; stroke-width: 1.25; stroke-linejoin: miter; stroke-linecap: square"/>
   </g>
   <g id="patch_6">
    <path d="M 60.39 12.96 
L 334.604 12.96 
" style="fill: none; stroke: #cccccc; stroke-width: 1.25; stroke-linejoin: miter; stroke-linecap: square"/>
   </g>
   <g id="legend_1">
    <g id="patch_7">
     <path d="M 342.28828 146.395313 
L 415.847655 146.395313 
Q 418.047655 146.395313 418.047655 144.195313 
L 418.047655 15.16 
Q 418.047655 12.96 415.847655 12.96 
L 342.28828 12.96 
Q 340.08828 12.96 340.08828 15.16 
L 340.08828 144.195313 
Q 340.08828 146.395313 342.28828 146.395313 
z
" style="fill: #ffffff; opacity: 0.8; stroke: #cccccc; stroke-linejoin: miter"/>
    </g>
    <g id="text_14">
     <!-- Lengh [nm] -->
     <g style="fill: #262626" transform="translate(344.48828 26.478125)scale(0.12 -0.12)">
      <defs>
       <path id="DejaVuSans-4c" d="M 628 4666 
L 1259 4666 
L 1259 531 
L 3531 531 
L 3531 0 
L 628 0 
L 628 4666 
z
" transform="scale(0.015625)"/>
      </defs>
      <use xlink:href="#DejaVuSans-4c"/>
      <use xlink:href="#DejaVuSans-65" x="53.962891"/>
      <use xlink:href="#DejaVuSans-6e" x="115.486328"/>
      <use xlink:href="#DejaVuSans-67" x="178.865234"/>
      <use xlink:href="#DejaVuSans-68" x="242.341797"/>
      <use xlink:href="#DejaVuSans-20" x="305.720703"/>
      <use xlink:href="#DejaVuSans-5b" x="337.507812"/>
      <use xlink:href="#DejaVuSans-6e" x="376.521484"/>
      <use xlink:href="#DejaVuSans-6d" x="439.900391"/>
      <use xlink:href="#DejaVuSans-5d" x="537.3125"/>
     </g>
    </g>
    <g id="line2d_30">
     <path d="M 353.169843 38.982031 
L 364.169843 38.982031 
L 375.169843 38.982031 
" style="fill: none; stroke: #a5cd90; stroke-width: 1.5; stroke-linecap: round"/>
    </g>
    <g id="text_15">
     <!-- 90 -->
     <g style="fill: #262626" transform="translate(383.969843 42.832031)scale(0.11 -0.11)">
      <defs>
       <path id="DejaVuSans-39" d="M 703 97 
L 703 672 
Q 941 559 1184 500 
Q 1428 441 1663 441 
Q 2288 441 2617 861 
Q 2947 1281 2994 2138 
Q 2813 1869 2534 1725 
Q 2256 1581 1919 1581 
Q 1219 1581 811 2004 
Q 403 2428 403 3163 
Q 403 3881 828 4315 
Q 1253 4750 1959 4750 
Q 2769 4750 3195 4129 
Q 3622 3509 3622 2328 
Q 3622 1225 3098 567 
Q 2575 -91 1691 -91 
Q 1453 -91 1209 -44 
Q 966 3 703 97 
z
M 1959 2075 
Q 2384 2075 2632 2365 
Q 2881 2656 2881 3163 
Q 2881 3666 2632 3958 
Q 2384 4250 1959 4250 
Q 1534 4250 1286 3958 
Q 1038 3666 1038 3163 
Q 1038 2656 1286 2365 
Q 1534 2075 1959 2075 
z
" transform="scale(0.015625)"/>
      </defs>
      <use xlink:href="#DejaVuSans-39"/>
      <use xlink:href="#DejaVuSans-30" x="63.623047"/>
     </g>
    </g>
    <g id="line2d_31">
     <path d="M 353.169843 55.127969 
L 364.169843 55.127969 
L 375.169843 55.127969 
" style="fill: none; stroke: #76b791; stroke-width: 1.5; stroke-linecap: round"/>
    </g>
    <g id="text_16">
     <!-- 105 -->
     <g style="fill: #262626" transform="translate(383.969843 58.977969)scale(0.11 -0.11)">
      <use xlink:href="#DejaVuSans-31"/>
      <use xlink:href="#DejaVuSans-30" x="63.623047"/>
      <use xlink:href="#DejaVuSans-35" x="127.246094"/>
     </g>
    </g>
    <g id="line2d_32">
     <path d="M 353.169843 71.273906 
L 364.169843 71.273906 
L 375.169843 71.273906 
" style="fill: none; stroke: #509e90; stroke-width: 1.5; stroke-linecap: round"/>
    </g>
    <g id="text_17">
     <!-- 120 -->
     <g style="fill: #262626" transform="translate(383.969843 75.123906)scale(0.11 -0.11)">
      <use xlink:href="#DejaVuSans-31"/>
      <use xlink:href="#DejaVuSans-32" x="63.623047"/>
      <use xlink:href="#DejaVuSans-30" x="127.246094"/>
     </g>
    </g>
    <g id="line2d_33">
     <path d="M 353.169843 87.419844 
L 364.169843 87.419844 
L 375.169843 87.419844 
" style="fill: none; stroke: #33858d; stroke-width: 1.5; stroke-linecap: round"/>
    </g>
    <g id="text_18">
     <!-- 135 -->
     <g style="fill: #262626" transform="translate(383.969843 91.269844)scale(0.11 -0.11)">
      <use xlink:href="#DejaVuSans-31"/>
      <use xlink:href="#DejaVuSans-33" x="63.623047"/>
      <use xlink:href="#DejaVuSans-35" x="127.246094"/>
     </g>
    </g>
    <g id="line2d_34">
     <path d="M 353.169843 103.565781 
L 364.169843 103.565781 
L 375.169843 103.565781 
" style="fill: none; stroke: #1d6c8a; stroke-width: 1.5; stroke-linecap: round"/>
    </g>
    <g id="text_19">
     <!-- 150 -->
     <g style="fill: #262626" transform="translate(383.969843 107.415781)scale(0.11 -0.11)">
      <use xlink:href="#DejaVuSans-31"/>
      <use xlink:href="#DejaVuSans-35" x="63.623047"/>
      <use xlink:href="#DejaVuSans-30" x="127.246094"/>
     </g>
    </g>
    <g id="line2d_35">
     <path d="M 353.169843 119.711719 
L 364.169843 119.711719 
L 375.169843 119.711719 
" style="fill: none; stroke: #234f81; stroke-width: 1.5; stroke-linecap: round"/>
    </g>
    <g id="text_20">
     <!-- 165 -->
     <g style="fill: #262626" transform="translate(383.969843 123.561719)scale(0.11 -0.11)">
      <use xlink:href="#DejaVuSans-31"/>
      <use xlink:href="#DejaVuSans-36" x="63.623047"/>
      <use xlink:href="#DejaVuSans-35" x="127.246094"/>
     </g>
    </g>
    <g id="line2d_36">
     <path d="M 353.169843 135.857656 
L 364.169843 135.857656 
L 375.169843 135.857656 
" style="fill: none; stroke: #2c3172; stroke-width: 1.5; stroke-linecap: round"/>
    </g>
    <g id="text_21">
     <!-- 180 -->
     <g style="fill: #262626" transform="translate(383.969843 139.707656)scale(0.11 -0.11)">
      <use xlink:href="#DejaVuSans-31"/>
      <use xlink:href="#DejaVuSans-38" x="63.623047"/>
      <use xlink:href="#DejaVuSans-30" x="127.246094"/>
     </g>
    </g>
   </g>
  </g>
 </g>
 <defs>
  <clipPath id="pe86e7a7418">
   <rect x="60.39" y="12.96" width="274.214" height="152.82"/>
  </clipPath>
 </defs>
</svg>
